if (_typeface_js && _typeface_js.loadFace) _typeface_js.loadFace({"glyphs":{"0":{"ha":442,"x_min":29,"x_max":414,"o":"m 232 657 q 273 649 243 657 q 334 608 303 642 q 390 506 365 575 q 414 317 414 438 q 413 287 414 314 q 405 222 411 260 q 386 142 399 185 q 352 62 374 99 q 297 1 331 25 q 217 -24 264 -24 q 160 -12 188 -24 q 111 22 133 -1 q 81 61 96 38 q 55 120 67 85 q 36 204 43 156 q 31 318 29 253 q 31 333 31 319 q 34 370 32 347 q 41 422 36 393 q 54 481 46 450 q 90 569 69 535 q 135 624 111 604 q 185 650 160 643 q 232 657 210 657 m 217 25 q 278 47 253 25 q 319 100 303 68 q 344 170 335 132 q 358 240 354 208 q 364 294 363 272 q 365 318 365 317 q 347 481 365 422 q 306 567 329 539 q 262 602 283 596 q 232 608 240 608 q 100 468 140 608 q 88 413 92 440 q 81 365 83 386 q 79 330 79 343 q 79 317 79 317 q 84 215 78 258 q 100 141 90 172 q 122 90 110 110 q 146 57 133 69 q 217 25 178 25 z "},"1":{"ha":268,"x_min":17,"x_max":240,"o":"m 194 642 q 221 656 201 660 q 240 632 240 651 l 221 0 q 214 -17 221 -11 q 197 -24 207 -24 l 196 -24 q 178 -17 185 -24 q 172 1 172 -10 l 188 510 l 71 246 q 39 233 61 224 q 26 265 17 243 l 194 642 l 194 642 z "},"2":{"ha":346,"x_min":26,"x_max":325,"o":"m 29 8 q 58 78 40 38 q 100 165 76 118 q 157 288 126 219 q 210 419 188 356 q 238 532 232 482 q 218 601 243 582 q 188 607 204 611 q 131 576 160 601 q 86 526 101 551 q 72 515 82 518 q 53 518 63 513 q 42 533 44 524 q 44 551 39 543 q 69 583 54 567 q 101 615 83 600 q 139 640 119 629 q 178 654 158 650 q 247 640 217 663 q 286 560 285 613 q 268 440 288 507 q 214 296 249 372 q 143 144 179 219 q 114 80 128 110 q 89 25 100 50 l 301 26 q 318 19 311 26 q 325 1 325 13 q 318 -15 325 -8 q 301 -22 311 -22 l 53 -24 q 33 -12 40 -24 q 29 8 26 -6 z "},"3":{"ha":461,"x_min":25,"x_max":436,"o":"m 217 -24 q 76 29 126 -24 q 25 175 25 82 q 32 192 25 186 q 50 199 39 199 q 67 192 60 199 q 74 175 74 186 q 87 100 74 129 q 121 54 100 71 q 167 31 142 38 q 217 25 192 25 q 310 51 276 25 q 360 110 343 78 q 380 171 376 143 q 383 201 383 199 q 321 378 388 332 q 256 403 292 399 q 188 403 219 407 q 135 392 157 399 q 114 386 114 386 q 85 396 96 379 q 90 428 75 415 l 294 608 l 118 608 q 101 615 108 608 q 94 632 94 621 q 101 649 94 643 q 118 656 108 656 l 358 656 q 381 640 376 656 q 375 614 386 625 l 192 453 q 270 450 228 456 q 349 418 313 444 q 432 200 436 356 q 422 132 432 171 q 386 59 411 93 q 320 1 361 25 q 217 -24 279 -24 z "},"4":{"ha":428,"x_min":18,"x_max":401,"o":"m 25 129 q 25 153 18 140 l 307 644 q 335 656 315 660 q 347 647 342 653 q 351 632 353 640 l 338 165 l 376 165 q 394 158 388 165 q 401 142 401 151 q 394 124 401 131 q 376 117 388 117 l 336 117 l 332 0 q 325 -17 332 -11 q 308 -24 318 -24 l 307 -24 q 290 -17 297 -24 q 283 1 283 -10 l 288 117 l 46 117 q 25 129 31 117 m 88 165 l 289 165 l 300 536 l 88 165 z "},"5":{"ha":557,"x_min":26,"x_max":532,"o":"m 258 25 q 365 51 318 25 q 443 126 413 78 q 479 243 475 179 q 457 358 483 307 q 410 425 436 400 q 358 463 383 450 q 308 480 332 476 q 267 482 283 483 q 178 458 214 479 q 135 417 142 436 q 106 403 125 399 q 92 413 97 406 q 88 428 86 419 l 99 635 q 124 657 101 657 l 457 657 q 474 650 467 657 q 481 633 481 643 q 474 615 481 622 q 457 608 467 608 l 146 608 l 140 492 q 197 519 165 508 q 264 531 229 529 q 316 528 286 532 q 378 508 346 524 q 442 462 410 492 q 500 381 474 432 q 528 242 532 318 q 485 101 524 165 q 389 8 447 40 q 258 -24 331 -24 q 161 -7 204 -24 q 88 38 118 10 q 42 100 58 65 q 26 171 26 135 q 33 189 26 182 q 51 196 40 196 q 69 189 63 196 q 75 171 75 182 q 88 118 75 144 q 124 71 100 92 q 181 38 147 50 q 258 25 215 25 z "},"6":{"ha":464,"x_min":26,"x_max":436,"o":"m 103 378 q 168 430 131 410 q 256 450 206 450 q 372 400 325 450 q 395 372 383 389 q 416 330 407 354 q 431 274 425 306 q 435 200 436 242 q 424 132 435 171 q 389 59 414 93 q 323 1 364 25 q 219 -24 282 -24 q 171 -17 203 -24 q 108 12 139 -11 q 53 81 76 35 q 29 206 29 126 q 28 227 29 207 q 31 281 26 247 q 46 359 35 315 q 81 451 57 403 q 146 551 106 500 q 247 651 186 603 q 265 657 256 658 q 282 649 275 656 q 287 631 289 640 q 278 614 285 621 q 163 494 204 556 q 103 378 122 432 m 386 201 q 338 367 390 314 q 256 401 304 401 q 167 372 201 401 q 113 306 132 342 q 86 240 93 271 q 79 210 79 210 q 76 201 79 207 q 92 110 78 144 q 129 56 107 75 q 176 31 151 38 q 219 25 200 25 q 313 51 279 25 q 363 110 347 78 q 383 171 379 143 q 386 201 386 199 z "},"7":{"ha":340,"x_min":22,"x_max":317,"o":"m 22 632 q 29 650 22 643 q 47 657 36 657 l 290 657 q 310 647 300 657 q 314 626 317 639 l 164 -6 q 140 -24 160 -24 l 135 -24 q 119 -12 124 -21 q 117 6 114 -4 l 260 608 l 47 608 q 29 615 36 608 q 22 632 22 622 z "},"8":{"ha":389,"x_min":14,"x_max":368,"o":"m 82 601 q 194 657 126 657 q 321 599 275 657 q 346 456 368 536 q 256 328 325 382 q 253 326 254 326 q 250 323 251 324 q 247 321 249 322 q 244 319 246 321 q 288 283 267 303 q 325 242 308 264 q 351 197 342 221 q 361 144 361 172 q 351 85 361 115 q 319 31 342 56 q 263 -8 297 7 q 176 -24 228 -24 q 49 35 96 -24 q 22 90 29 60 q 21 150 14 121 q 76 248 33 207 q 161 319 118 289 q 88 381 121 349 q 43 456 54 414 q 45 524 36 483 q 82 601 54 565 m 313 144 q 283 218 313 183 q 203 290 253 253 q 160 260 182 276 q 120 224 139 243 q 88 185 101 206 q 68 139 74 164 q 69 101 64 121 q 88 65 74 81 q 176 25 117 25 q 251 40 224 25 q 292 74 278 54 q 309 114 306 94 q 313 144 313 133 m 194 608 q 121 571 150 608 q 94 516 101 546 q 90 468 86 486 q 133 406 100 435 q 203 349 165 376 q 213 356 208 353 q 221 363 217 360 q 299 468 282 410 q 282 568 314 528 q 194 608 253 608 z "},"9":{"ha":456,"x_min":28,"x_max":431,"o":"m 429 433 q 430 411 429 432 q 426 356 431 390 q 410 277 422 322 q 372 183 397 232 q 303 81 346 133 q 196 -18 260 29 q 182 -24 190 -24 q 163 -14 169 -24 q 158 4 156 -6 q 167 21 160 14 q 290 142 246 79 q 354 263 333 206 q 291 213 328 232 q 206 193 254 193 q 144 206 174 193 q 92 242 114 218 q 48 311 68 265 q 31 439 28 357 q 41 505 31 467 q 75 577 51 543 q 139 635 99 611 q 240 658 179 658 q 288 653 257 658 q 351 624 319 647 q 406 556 382 601 q 429 433 429 511 m 206 242 q 292 270 258 242 q 344 333 325 299 q 370 397 363 367 q 378 429 378 426 q 381 436 378 433 q 365 527 379 493 q 328 580 350 561 q 283 604 307 599 q 240 610 260 610 q 149 584 182 610 q 101 526 117 558 q 81 467 85 494 q 78 438 78 440 q 126 275 75 328 q 206 242 157 242 z "},"A":{"ha":507,"x_min":11,"x_max":517,"o":"m 25 -6 q 14 8 17 -1 q 15 24 11 17 q 36 72 18 29 q 80 173 54 114 q 135 299 106 232 q 188 424 164 367 q 229 520 213 482 q 247 560 246 558 q 256 570 250 567 q 267 574 261 574 q 279 570 274 574 q 288 560 285 567 l 514 26 q 513 10 517 18 q 503 -1 510 1 q 485 -2 493 -6 q 474 10 476 1 l 396 192 l 136 192 q 81 65 104 118 q 54 6 57 13 q 35 -7 47 -7 q 25 -6 29 -7 m 267 496 q 244 444 257 474 q 217 380 232 414 q 185 309 201 346 q 154 236 169 272 l 378 236 l 267 496 z "},"B":{"ha":558,"x_min":28,"x_max":563,"o":"m 47 3 q 33 11 39 4 q 29 26 28 18 q 30 30 29 29 q 31 32 31 31 l 31 481 q 43 501 31 494 q 105 541 68 525 q 181 565 142 557 q 260 569 221 572 q 331 553 300 567 q 401 433 406 519 q 374 372 397 400 q 488 333 442 364 q 547 253 535 301 q 531 144 563 197 q 431 56 500 92 q 310 11 376 25 q 163 -3 243 -3 q 107 -1 135 -3 q 47 3 79 0 m 74 268 l 82 271 q 166 299 119 283 q 254 335 213 315 q 325 381 296 356 q 357 438 354 407 q 311 514 361 492 q 255 526 288 525 q 189 522 222 528 q 125 502 156 515 q 74 469 94 489 l 74 268 m 74 44 q 411 93 281 26 q 491 162 465 122 q 506 242 517 201 q 447 307 494 283 q 332 331 400 331 q 218 272 283 296 q 94 231 153 249 l 74 222 l 74 44 z "},"C":{"ha":558,"x_min":25,"x_max":556,"o":"m 326 -1 q 244 10 294 -1 q 144 50 193 21 q 60 131 96 79 q 25 264 25 182 q 47 383 25 333 q 102 468 69 433 q 174 524 135 503 q 246 556 213 544 q 301 571 279 567 q 325 575 324 575 q 437 568 393 579 q 506 541 481 557 q 541 510 531 525 q 553 494 551 496 q 553 478 556 486 q 543 467 550 469 q 526 465 535 461 q 513 476 517 468 q 504 488 513 478 q 476 508 496 497 q 420 527 456 519 q 329 531 385 535 q 306 528 326 531 q 257 515 286 525 q 195 488 228 506 q 135 440 163 469 q 88 367 107 410 q 69 264 69 324 q 99 153 69 196 q 171 85 129 110 q 256 52 213 61 q 326 43 300 43 q 419 51 383 43 q 476 71 456 60 q 514 99 501 83 q 527 108 518 106 q 544 106 536 111 q 553 94 551 103 q 551 78 556 85 q 540 62 550 75 q 503 35 529 49 q 435 10 478 21 q 326 -1 393 -1 z "},"D":{"ha":453,"x_min":28,"x_max":447,"o":"m 49 -1 q 35 4 40 -1 q 28 21 28 8 l 28 551 q 49 574 28 574 q 394 458 296 574 q 431 401 419 429 q 444 348 442 372 q 446 308 447 324 q 444 292 444 293 q 417 195 444 238 q 347 120 389 153 q 256 65 306 88 q 162 28 206 43 q 88 7 118 14 q 53 -1 57 0 l 49 -1 m 71 47 q 157 72 101 54 q 267 120 213 90 q 361 194 321 150 q 401 296 401 238 q 402 310 401 297 q 400 343 403 324 q 388 385 397 363 q 360 432 379 408 q 71 531 282 524 l 71 47 z "},"E":{"ha":390,"x_min":26,"x_max":407,"o":"m 47 0 q 33 6 39 0 q 26 21 26 11 q 26 81 26 40 q 28 175 26 122 q 28 292 28 231 q 30 407 29 353 q 31 501 31 461 q 29 551 31 540 l 29 553 q 30 554 29 554 q 31 556 31 554 q 32 560 31 558 q 33 563 32 563 q 33 564 33 563 q 35 568 33 567 q 39 569 38 568 q 42 572 42 572 q 45 573 44 572 q 47 574 46 574 q 50 575 47 574 l 51 575 l 386 575 q 407 553 407 575 q 386 531 407 531 l 74 531 l 74 279 l 229 279 q 244 272 238 279 q 251 256 251 265 q 244 241 251 247 q 229 235 238 235 l 72 235 l 72 175 q 71 101 71 135 q 71 44 71 67 l 386 44 q 407 21 407 44 q 386 0 407 0 l 47 0 l 47 0 z "},"F":{"ha":260,"x_min":26,"x_max":403,"o":"m 49 -1 q 33 5 39 -1 q 26 19 26 11 q 27 78 26 38 q 28 171 28 118 q 28 287 28 225 q 30 403 29 349 q 31 497 31 457 q 31 547 31 536 l 31 549 l 31 553 q 32 556 31 553 q 33 560 32 558 q 34 562 33 561 q 35 564 35 563 q 39 565 36 565 q 43 568 42 568 q 44 569 44 568 q 46 569 44 569 q 48 570 47 569 q 50 571 49 571 l 51 571 l 381 571 q 403 549 403 571 q 397 534 403 540 q 381 528 390 528 l 74 528 q 74 426 74 493 q 72 281 74 358 l 226 281 q 241 274 235 281 q 247 260 247 268 q 241 244 247 250 q 226 238 235 238 l 72 238 q 72 204 72 221 q 71 171 71 188 q 70 78 71 118 q 69 19 69 38 q 63 5 69 11 q 49 -1 57 -1 z "},"G":{"ha":585,"x_min":24,"x_max":631,"o":"m 325 -4 q 276 0 304 -4 q 216 14 247 4 q 153 41 185 24 q 94 83 121 58 q 24 269 24 154 q 46 392 24 342 q 101 476 68 443 q 174 528 135 510 q 246 557 213 547 q 301 569 279 567 q 325 571 324 571 q 437 565 393 576 q 506 536 481 553 q 541 505 531 519 q 551 489 551 490 q 542 460 561 469 q 525 459 533 456 q 513 469 517 463 q 503 482 511 471 q 474 504 494 493 q 419 524 454 515 q 328 528 383 532 q 305 526 325 528 q 256 515 285 524 q 194 491 226 507 q 133 447 161 475 q 87 374 106 418 q 68 269 68 331 q 126 115 68 171 q 188 72 154 88 q 252 50 222 57 q 303 42 282 43 q 326 40 324 40 q 407 47 374 40 q 462 63 440 54 q 494 81 483 72 q 510 94 506 90 l 510 217 q 510 230 510 224 q 508 239 510 236 q 476 242 504 242 q 404 242 447 242 q 382 264 382 242 q 404 286 382 286 q 482 285 456 286 q 522 278 508 285 q 550 252 546 269 q 554 217 554 235 l 554 119 l 554 118 l 554 68 q 555 62 554 65 q 558 53 556 58 q 608 40 572 40 q 624 33 618 40 q 631 17 631 26 q 624 2 631 8 q 608 -4 618 -4 q 525 25 551 -4 q 520 33 522 28 q 515 40 518 38 q 447 10 492 25 q 326 -4 401 -4 l 325 -4 l 325 -4 z "},"H":{"ha":526,"x_min":25,"x_max":496,"o":"m 47 1 q 31 8 38 1 q 25 22 25 14 q 26 82 25 40 q 26 176 26 124 q 27 292 26 231 q 28 408 28 354 q 29 502 29 463 q 29 553 29 542 q 49 576 26 574 q 71 556 71 576 q 72 520 72 546 q 72 457 72 494 q 72 374 72 419 q 71 282 71 329 l 451 282 q 452 373 451 328 q 453 455 453 418 q 452 518 453 492 q 451 553 451 544 q 472 576 451 574 q 494 556 492 576 q 496 504 496 543 q 495 412 496 465 q 494 296 494 358 q 493 175 493 233 l 493 22 q 486 8 493 14 q 469 1 479 1 q 455 8 461 1 q 449 22 449 14 q 449 81 449 40 q 450 175 449 122 l 450 239 l 71 239 q 70 207 71 224 q 69 175 69 190 q 69 81 69 122 q 68 22 68 40 q 62 8 68 14 q 47 1 56 1 z "},"I":{"ha":86,"x_min":24,"x_max":71,"o":"m 46 1 q 30 8 36 1 q 24 22 24 14 q 24 82 24 40 q 25 176 25 124 q 27 292 26 231 q 28 408 28 354 q 28 502 28 463 q 28 553 28 542 q 47 576 25 574 q 71 556 68 576 q 71 504 71 543 q 71 412 71 465 q 70 297 71 358 q 68 176 69 235 q 67 82 68 124 q 67 22 67 40 q 61 8 67 14 q 46 1 56 1 z "},"J":{"ha":518,"x_min":17,"x_max":496,"o":"m 214 -3 q 155 3 189 -3 q 90 26 121 10 q 38 69 60 42 q 17 140 17 97 q 40 163 17 163 q 63 140 63 163 q 86 84 63 104 q 138 54 110 64 q 190 43 165 44 q 214 42 214 42 q 347 60 299 42 q 418 101 394 79 q 447 143 442 124 q 451 165 451 163 l 451 569 q 458 585 451 579 q 472 592 464 592 q 496 569 496 592 l 496 164 q 490 135 496 161 q 458 78 485 108 q 374 22 431 47 q 214 -3 317 -3 z "},"K":{"ha":474,"x_min":22,"x_max":496,"o":"m 43 -1 q 28 5 35 -1 q 22 19 22 11 l 22 554 q 28 569 22 563 q 43 575 35 575 q 60 569 53 575 q 67 554 67 563 l 67 243 l 458 571 q 474 577 465 578 q 489 569 482 576 q 494 552 496 561 q 486 538 493 543 l 260 347 q 269 305 263 333 q 286 243 275 276 q 314 174 297 210 q 353 110 331 139 q 406 62 376 81 q 474 43 436 43 q 496 21 496 43 q 490 6 496 13 q 474 0 483 0 q 366 36 411 0 q 291 123 321 72 q 244 227 261 174 q 221 315 228 281 l 67 185 l 67 19 q 60 5 67 11 q 43 -1 53 -1 z "},"L":{"ha":365,"x_min":22,"x_max":413,"o":"m 46 0 q 22 22 22 0 q 23 83 22 42 q 24 179 24 125 q 26 294 25 233 q 26 408 26 354 q 26 501 26 461 q 26 551 26 540 q 47 576 24 574 q 71 554 68 576 q 71 503 71 542 q 71 411 71 464 q 70 297 71 358 q 68 178 69 235 q 68 103 68 138 q 67 44 68 68 l 389 44 q 406 38 399 44 q 413 22 413 32 q 406 6 413 13 q 389 0 399 0 l 46 0 l 46 0 z "},"M":{"ha":600,"x_min":22,"x_max":588,"o":"m 44 -1 q 28 5 35 -1 q 22 19 22 11 l 22 554 q 38 574 22 568 q 61 568 51 578 l 304 268 l 549 568 q 572 574 560 579 q 588 554 588 568 l 588 19 q 581 5 588 11 q 567 -1 575 -1 q 550 5 557 -1 q 543 19 543 11 l 543 492 l 325 225 q 304 217 317 214 q 285 225 293 214 l 67 492 l 67 19 q 60 5 67 11 q 44 -1 54 -1 z "},"N":{"ha":506,"x_min":21,"x_max":496,"o":"m 482 0 q 475 -1 481 -1 q 458 6 465 -1 l 64 489 l 64 22 q 58 6 64 13 q 43 0 51 0 q 21 22 21 0 l 21 550 q 25 563 21 557 q 36 569 29 568 q 60 564 50 576 l 453 82 l 453 550 q 459 565 453 558 q 475 571 465 571 q 490 565 483 571 q 496 550 496 558 l 496 19 q 482 0 496 4 z "},"O":{"ha":526,"x_min":19,"x_max":518,"o":"m 276 479 q 372 461 326 479 q 451 407 417 443 q 501 328 485 372 q 517 236 518 285 q 493 142 514 186 q 438 66 472 99 q 358 15 403 33 q 261 -4 313 -4 q 166 14 211 -4 q 88 68 121 32 q 37 147 54 103 q 22 239 19 190 q 44 333 24 289 q 100 409 65 376 q 180 460 135 442 q 276 479 225 479 m 261 44 q 340 60 303 44 q 404 101 376 75 q 449 163 432 128 q 468 239 467 199 q 456 311 469 276 q 417 374 443 346 q 353 416 389 401 q 276 431 317 431 q 198 415 235 431 q 133 374 161 400 q 89 312 106 347 q 71 236 72 276 q 83 164 69 199 q 122 101 96 129 q 185 59 150 74 q 261 44 221 44 m 265 299 q 308 281 290 299 q 322 244 322 267 q 304 208 321 222 q 263 193 288 193 q 219 210 236 193 q 206 246 203 226 q 223 283 206 268 q 265 299 240 299 m 263 242 q 274 246 274 242 q 265 250 274 250 q 254 244 254 250 q 256 243 254 243 q 263 242 257 242 z "},"P":{"ha":460,"x_min":21,"x_max":450,"o":"m 25 168 l 25 529 q 24 531 25 531 q 24 547 21 539 q 38 557 28 554 q 99 570 65 565 q 174 575 133 575 q 264 564 215 575 q 353 529 313 553 q 422 467 394 506 q 450 372 450 428 q 420 265 450 308 q 348 193 390 221 q 258 151 306 165 q 175 135 210 138 q 157 134 165 135 q 140 133 149 133 q 102 136 121 133 q 68 142 83 139 l 68 21 q 62 6 68 13 q 46 0 56 0 q 31 6 36 0 q 25 21 25 13 l 25 167 l 25 168 m 68 186 q 115 178 90 181 q 172 179 140 176 q 192 182 174 179 q 237 192 211 185 q 292 211 263 199 q 348 245 322 224 q 390 298 374 267 q 407 372 407 329 q 379 452 407 421 q 314 501 351 483 q 237 524 276 518 q 174 531 197 531 q 116 528 142 531 q 68 519 90 526 l 68 186 z "},"Q":{"ha":593,"x_min":19,"x_max":585,"o":"m 99 82 q 40 176 60 124 q 22 288 19 229 q 47 398 24 346 q 110 489 71 450 q 201 551 150 528 q 311 574 253 574 q 506 490 426 574 q 565 397 544 450 q 582 285 585 344 q 547 155 579 214 q 460 56 514 96 q 492 48 475 51 q 529 44 508 44 q 544 38 538 44 q 550 24 550 32 q 544 8 550 14 q 529 1 538 1 q 464 10 492 1 q 415 29 436 18 q 357 8 388 15 q 292 0 326 0 q 99 82 178 0 m 311 529 q 218 510 263 529 q 140 457 174 490 q 87 379 107 424 q 65 285 67 335 q 79 192 63 236 q 131 113 96 147 q 204 60 163 78 q 292 43 246 43 q 336 48 315 43 q 376 60 357 53 q 354 90 361 76 q 346 106 347 104 q 347 122 343 114 q 360 135 351 131 q 376 133 368 138 q 386 121 383 129 q 394 107 388 119 q 419 79 401 94 q 503 167 471 113 q 539 288 536 221 q 524 382 542 338 q 474 461 507 426 q 400 512 442 494 q 311 529 358 529 z "},"R":{"ha":506,"x_min":19,"x_max":507,"o":"m 42 -3 q 26 3 32 -3 q 19 18 19 10 l 19 474 l 19 475 l 19 476 q 21 482 21 479 q 24 486 24 485 q 25 490 25 488 q 88 535 51 517 q 166 563 125 554 q 249 570 207 572 q 324 554 290 568 q 388 499 367 535 q 406 414 410 463 q 365 327 401 364 q 278 263 329 290 q 294 211 282 247 q 330 138 306 175 q 392 71 354 100 q 486 42 431 42 q 501 35 494 42 q 507 21 507 29 q 501 5 507 11 q 486 -1 494 -1 q 378 28 422 -1 q 304 99 333 58 q 259 180 275 139 q 238 244 243 221 q 163 213 201 226 q 88 188 124 199 q 74 183 81 185 q 63 179 68 182 l 63 18 q 56 3 63 10 q 42 -3 50 -3 m 63 225 q 74 228 65 225 q 165 260 115 242 q 257 301 214 278 q 330 352 300 324 q 363 417 360 381 q 306 514 368 486 q 246 528 279 526 q 179 522 213 529 q 115 501 146 515 q 63 465 83 486 l 63 225 z "},"S":{"ha":314,"x_min":14,"x_max":315,"o":"m 150 319 q 107 349 129 333 q 65 384 85 365 q 32 424 46 403 q 17 471 18 446 q 60 556 14 518 q 106 576 78 569 q 163 583 133 583 q 222 577 193 583 q 271 557 250 571 q 304 482 315 526 q 294 469 301 474 q 276 467 286 464 q 263 477 267 469 q 261 493 258 485 q 260 504 261 497 q 247 519 260 511 q 210 534 232 529 q 165 539 188 539 q 121 535 142 539 q 88 521 100 531 q 61 472 58 499 q 74 441 63 457 q 103 410 86 425 q 138 381 119 394 q 174 357 157 368 l 183 351 q 241 301 217 329 q 279 241 265 272 q 294 178 293 210 q 286 115 296 146 q 214 30 267 60 q 82 0 161 0 q 66 0 74 0 q 51 1 58 0 q 35 8 40 1 q 29 24 29 15 q 38 40 31 35 q 53 46 44 46 q 178 61 128 39 q 244 129 229 83 q 237 227 260 176 q 157 314 214 278 l 150 319 l 150 319 z "},"T":{"ha":247,"x_min":14,"x_max":432,"o":"m 14 553 q 36 575 14 575 l 408 575 q 425 569 418 575 q 432 553 432 563 q 425 538 432 544 q 408 531 418 531 l 232 531 l 232 21 q 226 6 232 13 q 211 0 221 0 q 195 6 201 0 q 189 21 189 13 l 189 531 l 36 531 q 20 538 26 531 q 14 553 14 544 z "},"U":{"ha":494,"x_min":35,"x_max":485,"o":"m 97 444 q 85 340 90 392 q 80 241 79 288 q 90 155 81 194 q 122 89 99 115 q 249 43 164 43 l 250 43 q 375 93 331 43 q 422 188 408 131 q 438 307 436 244 q 435 432 440 369 q 424 544 429 494 l 424 549 q 443 574 421 571 q 458 569 451 575 q 467 554 465 564 l 468 550 q 479 431 474 497 q 481 297 485 364 q 462 169 478 231 q 408 65 446 107 q 250 0 351 0 l 249 0 q 90 60 142 0 q 51 135 63 92 q 37 231 39 179 q 41 338 35 282 q 54 451 47 394 q 60 503 57 478 q 67 554 64 528 q 74 569 68 563 q 90 574 81 575 q 104 565 99 572 q 108 550 110 558 q 103 499 107 525 q 97 444 100 472 z "},"V":{"ha":382,"x_min":15,"x_max":474,"o":"m 32 571 q 49 570 40 574 q 60 557 57 567 l 238 82 l 429 558 q 442 570 433 567 q 458 569 450 574 q 470 559 467 567 q 471 543 474 551 l 257 14 q 236 0 253 0 q 217 14 221 0 l 19 543 q 19 560 15 551 q 32 571 22 568 z "},"W":{"ha":819,"x_min":13,"x_max":835,"o":"m 428 367 q 446 354 442 367 l 592 74 l 792 561 q 803 573 794 569 q 819 572 811 576 q 832 561 829 569 q 832 544 835 553 l 614 14 q 594 0 608 0 q 574 11 582 -1 l 426 299 l 263 11 q 244 0 256 0 l 242 0 q 222 14 228 3 l 19 544 q 32 574 13 564 q 49 573 40 576 q 60 561 57 569 l 247 72 l 408 354 q 428 367 414 367 z "},"X":{"ha":461,"x_min":10,"x_max":474,"o":"m 365 -6 q 346 4 356 -6 l 258 147 l 181 6 q 163 -6 174 -6 q 151 -3 157 -6 q 141 10 143 1 q 142 26 139 18 l 232 192 l 19 533 q 26 564 10 551 q 56 556 46 574 l 256 235 l 429 556 q 444 565 435 563 q 460 564 453 568 q 470 551 467 560 q 468 535 474 542 l 282 192 l 383 28 q 376 -1 396 8 q 365 -6 372 -6 z "},"Y":{"ha":489,"x_min":31,"x_max":475,"o":"m 243 101 q 74 161 125 101 q 41 224 50 189 q 31 299 32 260 q 36 382 31 339 q 49 468 42 425 q 56 511 53 490 q 61 551 58 532 q 85 571 64 574 q 103 546 107 565 q 98 505 101 525 q 92 463 94 485 q 80 383 85 422 q 75 308 75 344 q 82 242 75 272 q 107 190 89 211 q 243 144 146 144 q 382 196 336 144 q 432 357 428 247 l 432 358 l 432 550 q 438 566 432 560 q 453 572 444 572 q 475 550 475 572 l 475 21 q 469 6 475 13 q 453 0 463 0 q 438 6 444 0 q 432 21 432 13 l 432 192 q 243 101 374 101 z "},"Z":{"ha":435,"x_min":21,"x_max":407,"o":"m 403 571 q 406 561 407 563 q 407 554 404 560 q 405 544 407 547 q 403 538 403 542 q 397 525 400 531 q 392 513 394 519 q 381 491 386 501 q 368 469 375 481 q 313 387 342 428 q 256 303 283 346 q 194 221 224 261 q 136 140 164 181 q 108 101 121 119 q 82 63 94 82 l 68 46 q 75 44 72 44 q 82 43 78 43 q 153 40 119 38 q 215 42 188 42 q 289 46 269 46 q 346 51 325 50 q 369 33 367 53 q 329 17 371 26 q 214 1 288 8 q 176 -1 196 0 q 133 -1 156 -1 q 111 -1 122 -1 q 88 0 100 -1 q 77 1 83 0 q 64 3 71 1 q 50 6 57 6 q 32 14 43 7 q 28 19 31 19 q 24 26 25 22 q 22 33 24 31 q 21 36 21 36 l 21 38 l 22 44 l 22 46 l 24 46 q 26 53 24 51 q 28 57 28 54 l 31 63 l 44 85 q 58 106 51 96 q 72 126 65 115 q 102 167 88 146 q 133 210 117 188 q 197 294 165 250 q 260 381 228 338 q 290 426 275 404 q 319 468 304 447 q 344 509 332 489 q 365 546 357 529 q 358 547 361 546 q 354 549 356 549 l 306 549 q 262 546 283 546 q 219 546 240 546 q 147 542 181 544 q 89 538 114 540 q 76 534 82 535 q 60 531 69 533 l 53 531 q 48 530 50 531 q 44 529 46 529 q 36 533 42 529 q 36 541 36 536 q 44 553 36 546 q 65 563 57 561 q 83 567 72 564 l 82 567 q 157 577 101 572 q 294 583 213 582 q 316 585 306 585 q 336 585 326 585 l 358 585 l 369 585 l 376 585 l 378 585 l 379 585 l 386 583 l 389 583 l 390 582 q 403 571 396 581 m 53 38 l 51 38 l 50 36 q 53 36 50 36 l 53 38 z "},"a":{"ha":290,"x_min":4,"x_max":282,"o":"m 13 100 q 10 112 11 107 q 7 125 8 117 q 10 183 4 156 q 27 235 15 211 q 54 279 39 260 q 86 314 69 299 q 151 353 119 344 q 192 364 182 363 q 225 362 213 367 q 233 336 238 357 q 213 328 232 329 q 164 313 193 326 q 106 269 136 300 q 60 193 75 238 q 51 148 51 172 q 58 104 50 124 q 80 73 65 85 q 115 64 94 61 q 188 88 156 67 q 235 125 219 108 q 235 187 235 154 q 235 248 235 219 q 236 297 236 276 q 236 322 236 317 q 240 336 238 331 q 264 342 242 342 q 276 324 272 342 q 281 277 281 306 q 281 214 282 249 q 278 146 281 179 q 274 83 276 113 q 271 38 272 54 q 269 29 271 32 q 254 25 264 24 q 240 29 244 26 q 238 38 236 33 q 236 51 236 40 q 236 76 236 61 q 210 57 225 67 q 175 38 194 47 q 129 24 156 31 q 72 29 103 18 q 45 46 57 35 q 25 71 33 57 q 19 84 22 78 q 13 100 15 90 z "},"b":{"ha":288,"x_min":8,"x_max":283,"o":"m 39 517 q 49 497 44 517 q 54 443 53 476 q 56 367 56 410 q 54 281 56 325 q 78 314 65 297 q 114 346 92 331 q 150 361 126 354 q 188 361 165 367 q 224 342 208 356 q 250 314 239 329 q 276 247 269 282 q 279 175 283 211 q 256 107 272 139 q 214 54 240 75 q 157 22 189 31 q 97 21 125 14 q 67 35 79 26 q 44 53 54 43 l 44 44 q 43 38 43 40 q 42 32 43 35 q 27 25 36 24 q 14 32 18 26 q 10 44 10 38 q 8 86 8 53 q 8 166 8 119 q 9 265 8 213 q 10 363 10 317 q 10 444 10 410 q 11 486 11 478 q 13 508 11 500 q 39 517 15 517 m 60 199 q 55 188 57 193 q 50 179 53 183 q 49 140 50 158 q 47 103 49 121 q 51 99 50 100 q 54 94 51 97 q 63 84 56 92 q 80 69 69 76 q 106 58 90 63 q 140 60 121 54 q 180 78 161 64 q 212 115 199 93 q 232 163 225 136 q 236 217 239 189 q 222 269 233 243 q 194 307 211 294 q 176 317 185 314 q 157 317 168 319 q 142 309 151 314 q 125 297 132 304 q 78 237 93 267 q 60 199 64 207 z "},"c":{"ha":278,"x_min":3,"x_max":271,"o":"m 53 46 q 17 94 28 65 q 6 151 6 124 q 30 260 3 208 q 97 338 57 311 q 179 368 136 365 q 216 364 200 369 q 240 351 232 358 l 243 350 l 244 349 q 259 327 257 333 q 264 318 261 321 q 269 295 268 307 q 267 274 271 283 q 251 263 261 265 q 238 272 244 263 q 236 278 236 275 q 233 286 236 281 q 227 301 232 292 q 215 317 222 310 q 169 322 199 328 q 113 292 140 315 q 67 232 85 268 q 50 156 50 196 q 54 118 50 136 q 69 88 58 100 q 96 69 78 76 q 111 65 104 67 q 129 63 118 63 q 188 71 164 57 q 224 100 213 85 q 228 105 226 103 q 235 113 229 107 q 251 114 244 119 q 260 100 258 108 q 251 81 260 90 q 242 68 249 76 q 224 50 236 60 q 193 33 211 40 q 151 22 175 25 q 128 22 136 22 q 104 25 119 22 q 53 46 78 29 z "},"d":{"ha":282,"x_min":6,"x_max":274,"o":"m 228 69 q 164 32 204 49 q 117 22 144 25 q 63 35 90 19 q 22 79 33 49 q 8 133 10 110 q 31 240 6 193 q 89 314 57 286 q 151 353 121 344 q 192 363 182 361 q 228 357 218 367 l 228 408 q 231 460 231 439 q 232 489 232 482 q 236 510 233 501 q 261 515 239 518 q 270 499 268 515 q 274 456 272 483 l 274 319 q 272 240 272 281 q 269 161 271 200 q 266 94 268 125 q 263 44 264 64 q 260 32 263 38 q 245 25 254 24 q 232 32 236 26 q 228 44 228 38 l 228 69 m 181 82 q 208 100 196 90 q 228 118 221 110 l 229 119 q 229 188 229 150 q 228 265 229 225 l 228 331 q 205 326 221 328 q 165 313 189 324 q 108 270 138 300 q 63 197 78 240 q 53 153 54 176 q 57 110 51 131 q 76 77 63 90 q 108 64 89 64 q 147 67 128 61 q 181 82 165 74 z "},"e":{"ha":267,"x_min":6,"x_max":263,"o":"m 11 101 q 8 121 8 110 q 6 142 7 132 q 56 289 6 219 l 61 297 l 64 299 l 65 301 l 69 304 q 82 318 74 310 q 99 331 90 325 q 115 342 107 336 q 152 360 132 353 q 196 364 172 367 q 219 357 206 364 q 224 355 222 356 q 232 351 226 354 q 239 346 235 349 q 258 299 261 324 q 249 259 257 275 q 231 228 242 243 q 210 206 222 217 q 186 189 197 196 q 165 175 175 181 q 144 165 154 169 q 111 151 125 156 q 90 146 97 147 q 47 142 65 140 q 48 135 47 139 q 49 129 49 132 q 51 115 49 122 q 57 99 54 107 q 92 65 65 74 q 144 61 119 57 q 190 74 171 64 q 222 96 210 85 q 229 103 226 100 q 236 110 232 107 q 255 115 247 121 q 261 97 263 108 q 256 83 260 90 q 246 71 251 76 q 229 56 242 65 q 197 39 217 47 q 151 24 178 29 q 89 25 124 18 q 55 39 72 29 q 26 67 38 49 l 24 72 q 21 76 24 71 l 21 78 l 18 86 l 11 101 m 68 225 q 59 201 63 213 q 53 176 56 189 q 85 185 65 179 q 129 206 106 192 q 171 233 153 218 q 190 251 179 239 l 196 258 l 197 260 l 199 263 l 206 275 q 213 297 213 288 q 210 310 213 307 q 163 314 192 324 q 108 280 133 303 q 68 225 83 257 z "},"f":{"ha":199,"x_min":7,"x_max":240,"o":"m 10 372 q 15 375 11 375 q 61 378 24 378 l 61 379 l 61 381 l 61 385 l 63 388 l 63 393 q 64 403 64 399 q 67 414 64 408 q 72 426 69 421 q 76 439 74 432 q 83 450 79 446 q 89 460 86 454 q 96 469 92 464 q 104 476 100 474 q 136 498 121 490 q 165 510 151 506 q 188 515 179 514 q 201 517 197 517 q 230 514 219 518 q 238 489 240 510 q 219 480 236 482 q 176 468 201 478 q 126 433 149 460 q 122 427 124 431 q 118 421 119 424 q 115 413 115 417 q 111 407 114 410 q 110 397 110 403 q 108 385 110 392 l 107 379 l 107 378 q 154 379 133 379 q 179 379 175 379 q 188 376 185 379 q 190 351 190 374 q 165 334 190 338 q 107 333 139 331 q 106 247 107 290 q 103 166 104 204 q 101 96 103 128 q 99 43 100 64 q 97 28 99 32 q 82 20 92 19 q 68 28 72 21 q 64 43 64 36 q 63 74 64 50 q 63 134 63 99 q 62 213 63 169 q 61 301 61 257 l 61 336 q 34 339 46 338 q 15 342 22 340 q 10 343 11 342 q 7 358 7 349 q 10 372 7 367 z "},"g":{"ha":349,"x_min":7,"x_max":346,"o":"m 179 313 q 117 269 150 299 q 65 194 85 239 q 52 149 54 174 q 55 104 50 125 q 74 72 60 83 q 111 64 88 60 q 188 90 154 68 q 238 128 222 111 q 239 129 238 128 l 189 129 q 182 131 185 129 q 179 157 179 133 q 199 173 179 169 q 246 176 219 176 q 299 172 272 175 q 339 167 325 168 q 343 164 340 167 q 345 150 346 160 q 343 136 344 140 q 339 132 340 132 q 319 131 335 131 q 283 129 304 131 q 283 58 288 85 q 276 4 279 32 q 275 -3 276 -1 q 260 -6 269 -7 q 246 -3 250 -6 q 242 4 242 -1 l 242 3 q 241 11 242 7 q 240 23 240 15 q 239 44 239 31 q 239 82 239 58 q 211 60 228 71 q 172 39 194 49 q 126 24 151 31 q 68 28 100 17 q 40 46 51 33 q 19 72 28 58 q 15 86 17 79 q 10 103 13 93 q 8 115 8 110 q 7 131 7 121 q 15 188 7 161 q 35 239 22 215 q 66 281 49 263 q 100 314 83 300 q 166 353 135 344 q 207 364 197 363 q 240 362 228 367 q 249 336 253 357 q 228 328 247 329 q 179 313 208 326 z "},"h":{"ha":288,"x_min":6,"x_max":281,"o":"m 42 515 q 53 490 50 515 q 57 424 57 464 q 56 332 57 383 q 51 231 54 281 q 71 272 60 250 q 99 313 82 293 q 123 337 110 325 q 153 356 136 349 q 192 363 172 364 q 229 354 213 361 l 231 353 l 233 351 q 256 327 249 340 q 268 300 263 314 q 278 249 275 276 q 281 203 281 225 q 279 163 281 182 q 274 99 276 125 q 271 65 272 74 q 265 35 268 46 q 239 25 263 24 q 231 53 232 26 q 233 124 231 79 q 235 171 233 146 q 233 222 236 196 q 227 274 232 247 q 208 314 222 301 q 140 293 171 328 q 112 256 124 276 q 89 215 100 236 q 59 136 69 174 q 44 75 49 99 q 40 64 42 67 q 39 44 40 50 q 38 32 39 35 q 23 25 32 24 q 8 32 14 26 q 6 44 6 36 q 6 87 6 53 q 6 167 6 121 q 8 265 7 213 q 10 365 10 318 q 13 444 11 411 q 14 488 14 478 q 17 508 14 500 q 42 515 19 517 z "},"i":{"ha":79,"x_min":-6,"x_max":86,"o":"m 21 39 q 19 67 19 44 q 19 122 19 90 q 18 190 18 154 q 18 258 18 226 q 18 313 18 290 q 18 343 18 336 q 21 357 18 351 q 46 363 24 363 q 58 344 54 363 q 64 295 63 325 q 65 228 65 265 q 62 156 64 192 q 58 89 60 119 q 56 40 57 58 q 54 31 56 33 q 39 26 49 25 q 25 31 29 28 q 21 40 21 35 l 21 39 m 36 472 q 40 472 39 472 q 43 471 40 471 q 47 468 44 471 q 49 456 49 465 q 50 461 49 458 q 60 467 49 468 q 79 451 72 465 q 85 421 86 436 q 81 411 83 417 q 75 400 79 406 q 44 389 64 386 q 28 392 36 390 q 11 400 21 393 q -3 419 3 404 q -5 431 -6 425 q -3 442 -4 436 q 6 458 0 453 q 19 468 13 464 l 36 472 m 39 435 l 39 436 q 36 435 36 436 l 39 435 z "},"j":{"ha":79,"x_min":-10,"x_max":82,"o":"m 22 -67 q 20 -28 21 -58 q 19 45 19 3 q 19 135 19 88 q 18 224 18 182 q 18 297 18 267 q 18 336 18 328 q 20 355 18 347 q 44 363 22 363 q 57 338 53 363 q 63 273 61 313 q 63 184 64 233 q 61 88 63 135 q 58 -1 60 40 q 56 -65 57 -42 q 54 -76 56 -74 q 40 -83 49 -83 q 25 -78 31 -82 q 22 -65 22 -74 l 22 -67 m 7 400 q -1 408 1 403 q -7 419 -4 413 q -9 431 -10 425 q -7 442 -8 436 q 15 468 -1 458 q 31 472 26 471 q 35 472 33 472 q 39 471 36 471 q 42 468 42 471 q 44 456 44 463 l 44 461 q 56 467 44 468 q 75 451 68 465 q 79 421 82 436 q 71 400 79 410 q 40 389 60 386 q 24 392 32 390 q 7 400 17 393 m 35 436 q 32 435 32 436 l 35 435 l 35 436 z "},"k":{"ha":249,"x_min":10,"x_max":242,"o":"m 42 515 q 53 490 50 515 q 58 426 57 465 q 58 337 60 386 q 56 238 57 288 q 63 244 60 240 q 86 269 75 257 q 108 292 97 281 q 143 331 129 315 q 161 350 157 346 q 178 365 171 361 q 201 354 185 369 q 198 336 206 350 q 174 301 190 322 q 133 252 157 279 q 81 197 110 225 l 76 193 q 82 188 79 190 q 88 182 85 185 q 117 156 103 169 q 144 131 131 143 q 194 85 172 106 q 231 50 215 64 q 239 40 238 43 q 235 24 242 31 q 221 18 228 18 q 208 24 214 19 q 189 40 204 28 q 153 71 174 53 q 106 110 132 89 q 51 156 79 132 q 49 92 50 119 q 46 44 47 64 q 43 32 46 38 q 29 25 39 24 q 15 32 19 26 q 11 44 11 38 q 10 86 10 53 q 10 166 10 119 q 12 265 11 213 q 13 365 13 318 q 13 444 13 411 q 14 488 14 478 q 17 508 14 500 q 42 515 19 517 z "},"l":{"ha":75,"x_min":18,"x_max":67,"o":"m 24 32 q 19 44 19 36 q 18 86 18 53 q 18 166 18 119 q 19 265 18 213 q 20 363 19 317 q 21 444 21 410 q 21 486 21 478 q 24 508 21 500 q 49 515 26 517 q 60 488 57 515 q 65 416 64 460 q 65 319 67 372 q 62 213 64 265 q 58 116 60 161 q 54 44 56 71 q 53 38 53 40 q 51 32 53 35 q 37 25 46 24 q 24 32 28 26 z "},"m":{"ha":539,"x_min":24,"x_max":532,"o":"m 300 67 q 294 35 297 47 q 269 25 292 24 q 260 53 263 25 q 260 125 258 81 q 259 172 260 147 q 256 225 258 197 q 246 277 253 250 q 224 314 239 304 q 153 294 185 329 q 124 258 136 278 q 101 217 111 238 q 78 155 88 185 q 64 101 69 125 q 62 66 63 82 q 61 39 61 50 q 58 31 61 33 q 44 25 54 24 q 31 29 35 26 q 26 39 26 35 q 26 49 26 42 q 25 67 25 56 l 25 72 q 24 144 25 101 q 24 228 24 186 q 24 302 24 269 q 24 343 24 335 q 26 358 24 353 q 51 363 28 363 q 66 327 63 363 q 69 243 69 292 q 111 314 83 278 q 167 357 135 342 q 206 363 186 364 q 242 356 225 363 l 243 356 l 244 354 q 270 332 261 346 q 285 306 279 318 q 294 279 292 292 q 299 254 296 267 q 300 247 299 250 q 317 286 306 267 q 332 311 324 299 q 353 335 340 324 q 414 363 376 360 l 433 363 l 450 358 l 458 356 l 464 353 l 465 353 l 468 350 q 474 346 471 347 q 481 340 476 344 q 501 311 496 325 q 511 283 507 297 q 523 231 519 256 q 529 183 526 206 q 531 108 532 139 q 531 67 531 76 q 527 35 531 47 q 501 25 524 24 q 492 49 494 26 q 489 110 490 71 q 485 151 486 129 q 482 197 485 174 q 474 247 479 221 q 458 293 469 272 q 432 317 454 310 q 393 311 410 324 q 360 278 374 300 q 338 232 347 256 q 315 167 324 199 q 303 111 307 136 q 301 83 301 94 q 300 67 300 71 z "},"n":{"ha":306,"x_min":24,"x_max":300,"o":"m 56 363 q 70 330 67 363 q 72 251 74 297 q 107 310 86 282 q 131 335 118 324 q 161 356 143 347 q 199 363 179 364 q 238 356 219 363 l 239 354 l 240 354 q 278 303 269 331 q 292 253 286 276 q 297 207 296 229 q 300 165 299 185 q 299 101 300 126 q 297 67 297 75 q 292 35 296 47 q 267 25 289 22 q 258 53 260 26 q 256 124 257 79 q 254 171 256 146 q 250 224 253 196 q 245 251 247 238 q 239 276 243 264 q 217 314 232 303 q 149 292 181 329 q 122 254 133 275 q 100 213 110 233 q 75 138 83 172 q 63 79 67 103 q 61 56 61 67 q 60 38 61 46 q 57 29 60 35 q 43 25 53 24 q 29 29 33 26 q 25 39 25 35 q 24 67 24 44 q 24 122 24 90 q 25 190 25 154 q 26 258 25 226 q 27 313 26 290 q 28 343 28 336 q 31 358 28 353 q 56 363 33 363 z "},"o":{"ha":275,"x_min":0,"x_max":265,"o":"m 86 328 q 104 320 101 329 q 101 303 107 311 q 94 296 94 299 q 90 290 93 293 l 90 292 q 70 260 85 288 q 50 186 56 232 q 51 139 49 164 q 65 92 53 114 q 80 74 71 81 q 97 65 89 68 q 110 64 104 65 q 122 65 115 63 q 129 66 125 65 q 135 65 133 67 l 150 71 q 157 73 156 72 q 161 75 158 74 q 165 78 163 76 q 171 82 168 79 q 179 90 175 85 q 188 99 183 94 q 199 122 194 110 q 207 149 204 135 q 213 199 214 175 q 206 244 213 224 q 191 283 200 267 q 172 310 182 300 q 155 322 161 319 q 144 324 149 324 q 132 324 138 325 q 120 323 126 322 q 108 326 114 324 q 96 339 103 329 q 101 347 94 342 q 122 360 107 353 q 163 361 138 367 q 187 352 174 358 q 208 336 200 346 q 240 290 228 317 q 260 233 253 264 q 262 169 265 203 q 244 101 258 136 q 226 69 238 86 q 194 42 214 53 q 184 36 189 39 q 172 31 179 33 q 156 25 167 28 q 134 22 144 22 q 113 19 124 21 q 70 30 90 21 q 35 56 50 39 q 10 122 11 86 q 18 237 0 186 q 64 315 36 288 q 86 328 79 328 z "},"p":{"ha":282,"x_min":4,"x_max":285,"o":"m 8 -75 q 6 -62 6 -71 l 6 -64 q 5 -26 4 -57 q 6 46 6 4 q 8 135 7 88 q 11 225 10 183 q 13 297 13 267 q 14 336 14 328 q 17 356 15 349 q 43 363 19 364 q 53 339 50 363 q 57 278 57 315 q 80 313 67 294 q 115 346 93 331 q 131 354 126 351 q 151 361 144 360 l 158 361 l 163 361 q 167 362 167 363 q 169 361 167 361 q 178 361 174 361 q 189 358 183 361 q 223 340 208 353 q 247 311 238 326 q 274 176 285 249 q 252 111 268 142 q 211 60 236 81 q 156 30 186 38 q 97 29 125 22 q 70 41 82 33 q 49 57 58 49 q 44 -12 46 19 q 39 -64 42 -44 q 38 -75 39 -72 q 22 -81 32 -82 q 8 -75 13 -81 m 56 175 q 53 141 54 158 q 51 107 53 124 q 57 100 53 104 q 65 90 58 97 q 81 76 71 83 q 106 66 92 69 q 139 67 119 63 q 176 85 158 71 q 208 119 194 99 q 227 165 221 139 q 231 217 233 190 q 218 267 228 243 q 192 306 208 292 q 158 315 176 317 q 128 297 143 313 q 85 239 99 268 q 68 201 72 210 q 56 175 61 182 z "},"q":{"ha":288,"x_min":4,"x_max":279,"o":"m 163 311 q 105 269 135 299 q 60 194 75 239 q 51 150 51 174 q 56 107 50 126 q 77 76 63 88 q 113 68 92 65 q 187 92 154 71 q 232 131 219 113 q 233 133 232 131 q 233 202 233 168 q 233 264 233 236 q 233 310 233 292 q 232 336 232 329 q 235 355 232 347 q 260 363 238 363 q 272 338 268 363 q 278 272 276 313 q 278 183 279 232 q 276 87 278 135 q 274 -2 275 39 q 271 -67 272 -43 q 268 -78 271 -72 q 254 -84 264 -85 q 240 -79 244 -83 q 236 -67 236 -74 q 235 -15 235 -57 q 233 81 235 26 q 172 40 211 58 q 127 27 153 33 q 71 32 101 21 q 44 49 56 38 q 24 74 32 60 q 11 103 17 85 q 8 115 10 110 q 7 128 7 121 q 10 185 4 158 q 26 236 15 213 q 53 279 38 260 q 85 313 68 299 q 149 352 118 343 q 189 363 179 361 q 222 360 210 365 q 229 335 233 356 q 209 326 228 328 q 163 311 190 325 z "},"r":{"ha":294,"x_min":31,"x_max":288,"o":"m 33 38 q 31 67 32 43 q 31 122 31 90 q 31 190 31 154 q 31 258 31 226 q 31 313 31 290 q 31 343 31 336 q 33 357 31 351 q 58 363 36 363 q 69 346 65 363 q 75 301 74 329 q 81 310 78 306 q 86 318 83 314 q 126 351 101 339 q 175 364 151 364 q 197 364 186 367 l 203 364 l 207 364 l 208 363 q 219 361 214 363 q 244 350 235 357 q 261 335 253 343 q 282 300 276 319 q 285 265 288 281 q 277 239 282 249 q 269 225 272 229 q 244 206 256 210 q 224 222 233 203 q 231 240 219 229 q 243 271 243 251 q 221 311 243 293 q 194 319 214 318 q 160 315 175 319 q 131 299 143 311 q 108 271 118 288 q 93 234 99 254 q 83 196 88 214 q 76 154 79 174 q 72 117 74 135 q 69 72 69 92 q 67 38 68 51 q 65 29 67 32 q 51 25 60 24 q 36 29 42 26 q 33 38 33 32 z "},"s":{"ha":258,"x_min":4,"x_max":251,"o":"m 201 104 q 202 104 201 106 q 203 106 203 103 l 204 114 l 204 115 l 204 121 q 203 126 204 124 q 200 131 201 128 q 164 163 192 150 q 106 189 136 176 q 74 203 90 196 q 43 222 58 211 q 36 230 40 226 q 29 238 32 233 q 18 256 21 249 q 15 268 17 263 q 14 279 14 274 l 15 294 q 33 332 19 318 q 61 353 46 346 q 92 362 76 360 q 121 364 108 364 q 171 353 149 363 q 207 328 193 344 q 214 315 211 324 q 217 301 217 307 q 203 289 213 288 q 189 299 193 290 q 183 303 185 303 q 179 307 182 303 l 181 306 q 172 313 178 308 q 151 322 165 318 q 121 326 139 326 q 101 324 110 326 q 83 319 93 322 q 58 296 64 313 q 57 292 58 294 q 57 290 56 289 l 56 276 q 57 271 57 274 q 61 264 61 267 q 103 238 75 249 q 161 214 132 226 q 192 199 176 207 q 221 178 207 192 q 244 144 236 164 q 250 125 247 139 l 250 115 l 251 113 l 251 111 l 250 107 l 250 103 l 247 96 q 242 83 244 88 q 235 73 239 76 q 228 67 231 69 q 214 55 221 60 q 200 46 207 50 q 171 34 185 39 q 143 26 157 29 q 90 26 115 22 q 44 42 64 29 q 18 69 25 54 q 8 90 11 83 q 6 103 7 97 q 4 114 6 108 q 6 124 6 119 q 8 132 6 129 q 33 143 13 147 q 42 118 39 143 q 50 95 44 107 q 69 76 56 83 q 107 69 85 68 q 153 76 129 69 q 177 86 165 81 q 196 100 189 92 q 200 103 197 100 l 201 104 l 201 104 z "},"t":{"ha":193,"x_min":6,"x_max":188,"o":"m 8 386 q 14 390 10 390 l 13 390 q 34 392 17 392 q 74 392 51 392 l 74 493 q 76 514 74 506 q 101 522 79 522 q 115 485 111 522 q 119 393 118 449 l 178 393 q 185 390 182 393 q 188 365 188 388 q 167 350 188 354 q 119 347 147 346 q 119 260 119 306 q 117 175 118 215 q 114 100 115 135 q 111 44 113 65 q 108 32 111 40 q 94 25 104 24 q 81 32 85 26 q 76 44 76 38 q 76 84 76 53 q 74 159 75 115 q 74 253 74 203 q 74 349 74 303 q 39 353 54 351 q 13 356 24 354 q 8 357 10 356 q 6 372 6 363 q 8 386 6 382 z "},"u":{"ha":300,"x_min":19,"x_max":292,"o":"m 58 363 q 67 333 67 361 q 67 260 68 304 q 65 213 65 238 q 68 161 65 188 q 71 135 69 149 q 76 111 72 122 q 94 76 81 86 q 142 69 118 65 q 186 89 167 74 q 219 117 206 103 q 242 146 233 132 q 244 209 243 176 q 246 270 244 242 q 248 318 247 299 q 249 343 249 338 q 251 358 249 353 q 276 363 254 364 q 288 343 285 363 q 292 294 292 324 q 290 226 292 264 q 285 153 288 189 q 278 87 282 118 q 274 38 275 56 q 272 29 274 32 q 257 25 267 24 q 243 31 247 26 q 240 39 240 33 q 240 85 238 47 l 224 68 q 211 58 218 63 q 197 47 204 53 q 181 38 189 43 q 163 31 172 33 q 74 36 121 18 l 72 38 q 36 86 43 60 q 25 136 29 113 q 20 184 21 161 q 21 226 19 207 q 24 295 22 267 q 28 332 26 324 q 33 356 29 347 q 58 363 36 365 z "},"v":{"ha":258,"x_min":17,"x_max":264,"o":"m 185 82 q 174 65 178 74 q 163 50 169 57 q 143 35 154 43 q 115 26 132 26 q 94 32 100 26 q 87 37 92 35 q 79 42 82 39 q 64 65 74 54 q 54 88 58 76 q 46 111 50 100 q 35 156 39 135 q 29 199 32 178 q 19 275 21 240 q 17 333 17 310 q 18 351 17 347 q 33 362 24 363 q 49 354 42 361 q 50 346 50 350 q 51 338 50 342 q 55 300 53 329 q 64 229 57 271 q 73 185 68 208 q 85 139 78 163 q 92 117 88 128 q 100 94 96 106 q 106 84 103 89 q 114 76 110 79 q 115 74 114 74 q 115 72 115 74 l 117 71 l 117 67 l 118 71 q 125 74 117 68 q 138 92 133 81 q 150 113 144 101 q 158 135 156 124 q 175 180 168 158 q 189 221 182 201 q 208 290 200 261 q 219 326 215 318 q 230 357 222 344 q 257 361 238 369 q 258 331 264 360 q 242 254 253 303 q 213 144 233 206 q 199 113 206 129 q 185 82 193 97 z "},"w":{"ha":415,"x_min":15,"x_max":413,"o":"m 242 140 q 256 96 243 119 q 278 71 265 75 l 279 71 q 288 75 288 74 l 290 78 l 297 85 q 309 105 304 94 q 319 126 314 115 q 347 215 338 175 q 364 285 358 256 q 371 322 369 314 q 379 352 375 342 q 406 360 383 363 q 413 336 413 358 q 406 275 413 314 q 387 186 399 236 q 347 82 375 136 q 340 68 343 75 q 329 54 336 61 q 324 48 326 51 q 315 40 321 44 q 305 34 311 38 q 294 29 299 31 l 288 26 l 285 26 l 283 26 l 278 25 l 276 25 l 274 26 q 263 28 268 28 q 253 32 257 29 q 237 44 243 38 q 225 58 231 51 q 212 86 217 72 q 203 114 207 100 q 198 101 200 108 q 192 88 196 94 q 183 72 188 81 q 169 54 179 63 q 151 36 164 44 q 125 26 142 29 l 118 25 l 117 25 l 113 26 l 111 26 l 108 26 q 104 28 106 26 q 94 32 100 29 q 81 43 82 39 q 72 53 74 50 q 60 73 65 64 q 53 93 56 82 q 30 173 38 133 q 19 246 22 213 q 16 303 15 279 q 17 333 17 326 q 22 358 18 349 q 46 364 25 367 q 53 347 51 364 q 58 303 56 331 q 65 238 61 275 q 79 163 69 201 q 89 124 83 143 q 103 89 94 106 q 111 75 108 78 q 114 71 113 71 l 113 69 l 117 69 l 119 68 l 121 68 q 126 69 122 69 q 136 75 132 72 q 155 100 147 85 q 169 131 163 115 q 190 181 182 160 q 191 183 190 182 q 192 186 192 183 q 189 272 189 233 q 189 338 189 311 q 190 347 190 342 q 192 354 190 351 q 205 365 196 365 q 219 357 214 364 q 222 339 224 347 q 226 301 225 331 q 229 231 226 272 q 234 187 232 210 q 242 140 236 164 z "},"x":{"ha":250,"x_min":8,"x_max":247,"o":"m 193 38 q 169 74 189 44 q 126 139 150 103 l 67 38 q 55 26 61 31 q 26 35 49 22 q 24 51 19 38 q 40 86 28 65 q 67 132 51 107 q 99 182 82 157 q 69 225 83 203 q 44 265 56 247 q 24 297 32 283 q 15 315 17 311 q 8 330 8 324 q 32 350 8 336 q 47 344 38 353 q 69 317 57 335 q 94 276 81 299 q 124 228 108 253 q 172 300 147 264 q 208 354 196 336 q 217 361 213 360 q 235 358 226 364 q 246 349 243 353 q 244 335 247 339 l 246 336 q 235 317 243 332 q 215 282 228 303 q 188 237 203 261 q 157 188 172 213 l 226 58 q 232 49 232 53 q 219 36 229 40 q 203 33 208 32 q 193 39 194 33 l 193 38 l 193 38 z "},"y":{"ha":283,"x_min":3,"x_max":279,"o":"m 32 -171 q 16 -172 24 -178 q 6 -160 8 -167 q 10 -143 6 -151 q 19 -118 11 -137 q 40 -72 28 -99 q 69 -10 53 -44 q 101 61 85 24 q 75 118 89 79 q 47 201 61 157 q 22 285 33 244 q 4 346 10 325 q 3 350 4 349 q 4 354 3 351 q 16 364 7 361 q 31 364 25 367 q 36 357 36 363 q 50 322 39 350 q 74 256 61 293 q 101 179 88 218 q 125 113 115 140 q 161 190 143 151 q 194 259 179 228 q 219 312 208 290 q 232 340 229 333 q 246 363 239 356 q 272 361 253 371 q 269 325 279 357 q 238 245 258 293 q 188 138 217 197 q 132 23 160 79 q 79 -82 104 -33 q 40 -158 54 -131 l 32 -171 l 32 -171 z "},"z":{"ha":276,"x_min":7,"x_max":274,"o":"m 15 343 q 45 359 15 356 q 115 362 75 363 q 196 358 156 361 q 257 353 236 354 q 260 351 258 351 q 263 350 261 351 q 267 338 267 346 q 271 321 274 331 q 263 308 267 311 q 241 285 258 303 q 199 240 224 267 q 146 178 175 213 q 88 108 117 144 q 75 91 81 100 q 63 74 69 82 q 129 69 96 69 q 191 68 165 68 q 225 68 217 68 q 251 66 240 68 q 261 42 261 64 q 242 31 261 35 q 189 25 222 28 q 153 24 172 24 q 111 24 133 24 q 89 25 100 25 q 65 26 78 25 q 53 28 58 28 q 40 31 47 28 q 33 33 36 32 q 22 36 29 33 q 15 43 19 38 q 10 51 10 49 l 10 53 q 8 60 7 64 q 8 60 8 57 l 8 61 l 8 63 q 10 69 10 65 q 11 75 10 72 q 42 122 26 103 q 72 160 57 140 q 105 197 89 179 q 136 231 121 214 q 222 317 186 283 q 168 316 199 317 q 108 315 138 315 q 57 315 79 315 q 29 315 35 315 q 18 318 22 315 q 15 343 14 321 z "},"&":{"ha":339,"x_min":15,"x_max":326,"o":"m 319 143 q 324 126 326 136 q 314 110 322 117 q 253 81 293 94 q 168 68 213 68 q 140 69 154 68 q 114 75 126 71 q 29 149 50 93 q 23 212 15 182 q 57 263 31 242 q 86 281 67 271 q 67 310 72 294 q 63 324 64 315 q 66 344 63 333 q 78 366 69 354 q 106 389 88 378 q 142 403 119 399 q 189 409 164 408 q 240 406 214 410 q 288 393 265 401 q 301 361 308 383 q 269 347 292 340 q 192 361 233 363 q 132 347 150 360 q 118 338 126 344 q 113 325 110 331 q 150 294 119 310 q 249 271 207 299 q 258 244 263 261 q 236 226 253 226 q 192 230 218 225 q 140 246 167 235 q 88 225 108 242 q 74 167 60 201 q 126 121 88 133 q 170 116 147 115 q 215 122 193 117 q 256 133 238 126 q 286 149 275 140 q 303 153 293 156 q 319 143 313 151 m 175 565 q 181 583 175 576 q 199 590 188 590 q 217 583 210 590 q 224 565 224 576 l 224 460 q 217 443 224 450 q 199 436 210 436 q 181 443 188 436 q 175 460 175 450 l 175 565 m 175 21 q 199 44 175 44 q 217 38 210 44 q 224 21 224 32 l 224 -85 q 217 -103 224 -96 q 199 -110 210 -110 q 181 -103 188 -110 q 175 -85 175 -96 l 175 21 z "},"!":{"ha":108,"x_min":13,"x_max":96,"o":"m 36 565 q 51 572 42 572 q 64 567 60 571 q 68 554 68 560 q 69 517 68 547 q 70 447 69 488 q 71 360 71 407 q 71 273 71 314 q 71 202 71 232 q 71 164 71 172 q 69 145 71 153 q 43 138 67 138 q 32 162 36 138 q 26 225 28 186 q 26 312 25 264 q 28 406 26 360 q 31 491 29 451 q 33 554 32 531 q 35 560 35 557 q 36 565 35 563 m 69 108 q 72 94 72 103 q 71 79 72 85 l 71 78 q 74 79 72 79 q 81 82 76 79 q 92 76 88 85 q 93 58 96 68 q 89 47 92 53 q 79 36 86 42 q 57 28 68 28 q 48 29 53 28 q 40 32 43 31 q 38 34 38 33 q 35 36 38 35 q 24 48 26 43 q 17 61 21 53 q 14 72 15 67 q 15 83 13 76 q 28 101 18 94 q 51 110 42 110 q 67 110 60 110 q 69 108 68 110 z "},"'":{"ha":181,"x_min":13,"x_max":149,"o":"m 19 413 q 28 438 13 424 q 65 472 43 453 q 87 492 76 482 q 108 510 97 501 q 115 515 114 514 q 117 515 117 515 q 117 515 117 515 q 121 518 118 515 q 125 519 122 519 q 138 513 131 519 q 147 501 144 507 q 148 498 149 499 q 147 496 147 497 q 140 483 144 492 q 111 453 135 475 q 90 433 100 442 q 69 415 79 424 q 44 397 50 400 q 35 394 39 394 q 19 413 31 393 z "},"-":{"ha":386,"x_min":14,"x_max":372,"o":"m 29 157 q 19 160 25 157 q 15 174 14 164 q 19 188 15 183 q 29 192 24 192 l 28 192 q 85 194 38 193 q 189 196 133 194 q 291 203 244 200 q 347 208 338 207 q 363 206 357 208 q 372 182 369 204 q 361 172 372 176 q 331 163 350 167 q 285 157 311 160 q 229 153 258 154 q 171 152 200 151 q 115 153 142 153 q 65 156 88 154 q 29 157 43 157 z "},"~":{"ha":853,"x_min":8,"x_max":846,"o":"m 107 435 q 154 428 126 425 q 215 444 182 432 q 283 473 247 456 q 354 508 318 490 q 449 554 401 532 q 543 590 497 576 q 633 607 589 604 q 717 594 676 610 q 836 461 797 564 q 824 429 846 439 q 792 443 801 422 q 699 550 758 528 q 628 558 667 563 q 547 540 589 554 q 462 506 506 526 q 376 464 418 485 q 251 406 311 432 q 140 379 190 379 q 86 390 113 379 q 14 496 33 415 q 32 525 8 518 q 50 522 42 528 q 61 507 58 517 q 107 435 74 450 z "},"´":{"ha":194,"x_min":13,"x_max":185,"o":"m 18 439 q 31 460 13 451 q 74 479 49 469 q 99 491 86 486 q 122 501 111 496 q 144 510 135 506 q 161 518 154 515 l 167 518 q 178 507 171 515 q 185 493 185 499 q 185 488 185 488 q 163 472 182 485 q 115 446 143 458 q 91 435 104 440 q 67 425 78 429 q 48 420 56 422 q 38 417 40 418 q 28 417 32 415 q 18 439 25 418 z "},"`":{"ha":194,"x_min":10,"x_max":182,"o":"m 176 439 q 166 417 169 418 q 157 417 163 415 q 147 420 154 418 q 128 425 139 422 q 103 435 117 429 q 79 446 90 440 q 32 472 51 458 q 10 488 13 485 q 10 493 10 488 q 17 507 10 499 q 28 518 24 515 l 33 518 q 50 510 40 515 q 72 501 60 506 q 96 491 83 496 q 121 479 108 486 q 164 460 146 469 q 176 439 182 451 z "},"ˆ":{"ha":326,"x_min":13,"x_max":314,"o":"m 308 439 q 298 417 301 418 q 289 417 294 415 l 260 425 q 235 435 249 429 q 211 446 222 440 q 184 459 196 453 q 163 472 172 465 q 141 459 153 465 q 115 446 129 453 q 91 435 104 440 q 67 425 78 429 l 38 417 q 28 417 32 415 q 18 439 25 418 q 31 460 13 451 q 74 479 49 469 l 122 501 q 141 508 133 504 q 156 515 149 513 l 160 518 l 167 518 q 169 517 167 517 q 185 509 176 514 q 204 501 193 504 l 253 479 q 296 460 278 469 q 308 439 314 451 z "},"˜":{"ha":324,"x_min":-4,"x_max":321,"o":"m 51 450 q 83 456 63 447 q 126 476 103 464 l 135 481 q 203 509 168 497 q 265 510 238 521 q 315 454 300 494 l 314 456 q 316 439 321 446 q 301 425 311 432 q 286 426 294 422 q 274 438 278 431 q 261 456 268 447 q 247 467 254 464 q 199 463 228 475 q 140 433 171 450 l 128 428 q 92 413 110 419 q 56 407 74 407 q 32 411 42 407 q -1 456 4 425 q 0 474 -4 465 q 13 485 4 482 q 42 467 35 490 q 49 453 43 454 l 51 450 z "},"™":{"ha":783,"x_min":107,"x_max":674,"o":"m 107 646 q 126 665 107 665 l 433 665 q 453 646 453 665 q 447 634 453 639 q 433 629 442 629 l 288 629 l 288 346 q 283 334 288 339 q 271 329 278 329 q 257 334 263 329 q 251 346 251 339 l 251 629 l 126 629 q 113 634 118 629 q 107 646 107 639 m 358 328 q 340 346 340 328 l 340 646 q 353 663 340 658 q 372 663 358 664 q 389 657 386 661 l 493 425 l 633 657 q 647 663 636 661 q 661 663 657 664 q 674 646 674 658 l 674 346 q 669 333 674 339 q 657 328 664 328 q 638 346 638 328 l 638 594 l 510 375 q 493 369 504 367 q 476 375 482 367 l 376 594 l 376 346 q 358 328 376 328 z "},".":{"ha":114,"x_min":11,"x_max":103,"o":"m 53 67 q 56 66 56 67 q 60 65 57 65 q 64 63 61 65 q 65 50 65 60 q 67 56 65 53 q 77 61 65 63 q 96 46 89 60 q 101 15 103 31 q 98 6 100 11 q 92 -6 96 0 q 61 -17 81 -19 q 45 -14 53 -15 q 28 -6 38 -12 q 14 14 19 -1 q 12 25 11 19 q 14 36 13 31 q 23 53 17 47 q 36 63 29 58 l 53 67 m 56 29 l 56 31 q 53 29 53 31 l 56 29 z "},",":{"ha":108,"x_min":13,"x_max":99,"o":"m 13 -74 q 22 -39 21 -56 q 24 -8 24 -22 q 27 15 25 6 q 38 31 29 25 q 90 21 67 53 q 99 -1 99 13 q 81 -36 94 -19 q 51 -64 67 -53 q 24 -78 36 -75 q 13 -74 13 -82 m 47 29 l 47 31 q 44 29 44 31 l 47 29 z "},"+":{"ha":381,"x_min":11,"x_max":369,"o":"m 213 15 q 210 6 213 11 q 196 1 206 0 q 182 6 186 1 q 178 14 178 10 q 176 63 176 22 q 174 151 175 103 q 88 154 128 151 q 26 157 49 157 q 17 160 22 157 q 12 174 11 164 q 17 188 13 183 q 25 192 21 192 q 76 194 33 193 q 172 196 119 194 l 161 333 q 163 349 161 343 q 188 358 165 356 q 198 347 193 358 q 206 317 203 336 q 212 271 210 297 q 217 215 214 244 l 217 197 l 344 208 q 360 206 354 208 q 369 182 367 204 q 358 172 369 176 q 328 163 347 167 q 282 157 308 160 q 226 153 256 154 q 222 152 224 153 q 218 151 221 151 q 215 72 217 110 q 213 15 213 35 z "},"*":{"ha":399,"x_min":67,"x_max":322,"o":"m 210 410 q 208 403 210 404 q 199 399 206 399 q 189 403 192 399 q 186 408 186 404 q 183 437 183 414 q 182 490 183 460 q 146 458 163 472 q 121 433 129 443 q 114 431 115 431 q 104 435 108 429 q 100 444 100 440 q 101 450 100 449 q 119 469 104 454 q 154 506 135 485 q 110 508 131 507 q 78 510 90 510 q 72 513 72 510 q 67 522 67 515 q 71 532 68 529 q 76 535 72 535 q 103 536 82 536 q 151 538 124 536 q 121 573 135 557 q 97 599 107 589 q 94 604 94 601 q 99 615 93 610 q 108 619 104 619 q 114 617 113 619 l 181 556 l 174 636 q 176 647 174 643 q 193 654 178 651 q 205 631 200 654 q 213 571 210 607 l 254 619 q 264 626 260 625 q 281 619 268 628 q 271 591 286 614 q 231 540 256 568 l 304 546 q 315 545 311 547 q 322 528 319 543 q 296 515 322 521 q 232 507 269 510 l 283 464 q 291 456 289 460 q 283 439 293 451 q 259 446 278 433 q 214 481 240 458 q 211 439 213 457 q 210 410 210 421 z "},"/":{"ha":303,"x_min":0,"x_max":313,"o":"m 19 -71 q 4 -64 8 -71 q 3 -47 0 -57 q 28 19 10 -28 q 67 124 46 65 q 120 266 89 185 q 181 423 151 347 q 231 556 210 499 q 256 625 251 613 q 267 643 258 636 q 288 651 276 650 q 306 628 313 651 q 292 590 303 619 q 266 519 282 561 q 231 427 250 478 q 191 323 211 376 q 151 218 171 269 q 114 124 131 167 q 76 19 94 65 q 51 -47 58 -28 q 40 -64 49 -57 q 19 -71 31 -71 z "},"?":{"ha":301,"x_min":21,"x_max":275,"o":"m 86 60 q 101 156 86 103 q 136 263 115 208 q 178 369 157 317 q 213 468 200 422 q 226 549 226 514 q 203 601 225 583 q 172 607 189 611 q 115 576 144 601 q 68 526 85 551 q 53 515 63 518 q 33 518 43 513 q 24 533 26 524 q 26 551 21 543 q 52 583 36 567 q 86 615 68 600 q 124 640 104 629 q 164 654 144 650 q 233 640 203 663 q 269 583 263 618 q 265 503 275 547 q 237 410 256 460 q 197 307 218 360 q 159 200 176 254 q 138 94 142 146 l 118 38 q 96 40 107 33 q 86 60 86 46 m 108 0 q 112 -1 111 0 q 115 -1 113 -1 q 119 -4 117 -1 q 121 -17 121 -7 q 122 -11 121 -14 q 133 -6 121 -4 q 151 -21 144 -7 q 156 -35 154 -28 q 156 -51 157 -42 q 144 -72 153 -61 q 114 -83 133 -86 q 98 -81 106 -82 q 81 -72 90 -79 q 68 -53 71 -67 q 66 -42 65 -47 q 68 -31 67 -36 q 78 -14 72 -19 q 92 -4 85 -8 l 108 0 m 110 -37 l 110 -36 q 107 -37 107 -36 l 110 -37 z "},":":{"ha":114,"x_min":11,"x_max":103,"o":"m 53 97 q 56 97 56 97 q 60 96 57 96 q 64 93 61 96 q 65 81 65 90 q 67 86 65 83 q 77 92 65 93 q 96 76 89 90 q 101 46 103 61 q 98 36 100 42 q 92 25 96 31 q 61 14 81 11 q 45 17 53 15 q 28 25 38 18 q 14 44 19 29 q 12 56 11 50 q 14 67 13 61 q 23 83 17 78 q 36 93 29 89 l 53 97 m 56 60 l 56 61 q 53 60 53 61 l 56 60 m 53 253 q 56 252 56 253 q 60 251 57 251 q 64 249 61 251 q 65 236 65 246 q 67 242 65 239 q 77 247 65 249 q 96 232 89 246 q 101 201 103 217 q 98 192 100 197 q 92 181 96 186 q 61 169 81 167 q 45 172 53 171 q 28 181 38 174 q 14 200 19 185 q 12 211 11 206 q 14 222 13 217 q 23 239 17 233 q 36 249 29 244 l 53 253 m 56 215 l 56 217 q 53 215 53 217 l 56 215 z "},";":{"ha":118,"x_min":13,"x_max":108,"o":"m 61 60 l 61 61 q 58 60 58 61 l 61 60 m 58 253 q 62 252 61 253 q 65 251 63 251 q 69 249 67 251 q 71 236 71 246 q 72 242 71 239 q 83 247 71 249 q 101 232 94 246 q 107 201 108 217 q 103 192 106 197 q 97 181 101 186 q 67 169 86 167 q 51 172 58 171 q 33 181 43 174 q 19 200 25 185 q 17 211 17 206 q 19 222 18 217 q 28 239 22 233 q 42 249 35 244 l 58 253 m 61 215 l 61 217 q 58 215 58 217 l 61 215 m 13 -18 q 22 17 21 0 q 24 47 24 33 q 27 71 25 61 q 38 86 29 81 q 90 76 67 108 q 99 54 99 68 q 81 19 94 36 q 51 -8 67 3 q 24 -23 36 -19 q 13 -18 13 -26 m 47 85 l 47 86 q 44 85 44 86 l 47 85 z "}," ":{"ha":204,"x_min":0,"x_max":0,"o":""},"Œ":{"ha":865,"x_min":19,"x_max":854,"o":"m 494 0 q 480 6 486 0 q 474 21 474 11 q 473 56 474 33 q 474 107 472 78 q 383 26 438 57 q 261 -4 328 -4 q 166 14 211 -4 q 88 68 121 32 q 37 147 54 103 q 22 239 19 190 q 44 333 24 289 q 100 409 65 376 q 180 460 135 442 q 276 479 225 479 q 372 461 326 479 q 451 407 417 443 q 476 375 465 393 q 478 489 478 440 q 476 551 478 538 l 476 553 q 477 554 476 554 q 478 556 478 554 q 479 560 478 558 q 480 563 479 563 q 481 564 481 563 q 482 568 481 567 q 486 569 485 568 q 489 572 489 572 q 492 573 492 572 q 494 574 493 574 q 497 575 494 574 l 833 575 q 854 553 854 575 q 833 531 854 531 l 521 531 l 521 279 l 676 279 q 692 272 685 279 q 699 256 699 265 q 692 241 699 247 q 676 235 685 235 l 519 235 l 519 175 q 518 101 518 135 q 518 44 518 67 l 833 44 q 854 21 854 44 q 833 0 854 0 l 494 0 m 261 44 q 340 60 303 44 q 404 101 376 75 q 449 163 432 128 q 468 239 467 199 q 456 311 469 276 q 417 374 443 346 q 353 416 389 401 q 276 431 317 431 q 198 415 235 431 q 133 374 161 400 q 89 312 106 347 q 71 236 72 276 q 83 164 69 199 q 122 101 96 129 q 185 59 150 74 q 261 44 221 44 m 265 299 q 308 281 290 299 q 322 244 322 267 q 304 208 321 222 q 263 193 288 193 q 219 210 236 193 q 206 246 203 226 q 223 283 206 268 q 265 299 240 299 m 263 242 q 274 246 274 242 q 265 250 274 250 q 254 244 254 250 q 256 243 254 243 q 263 242 257 242 z "},"œ":{"ha":475,"x_min":0,"x_max":474,"o":"m 86 328 q 104 320 101 329 q 101 303 107 311 q 94 296 94 299 q 90 290 93 293 l 90 292 q 70 260 85 288 q 50 186 56 232 q 51 139 49 164 q 65 92 53 114 q 80 74 71 81 q 97 65 89 68 q 110 64 104 65 q 122 65 115 63 q 129 66 125 65 q 135 65 133 67 l 150 71 q 157 73 156 72 q 161 75 158 74 q 165 78 163 76 q 171 82 168 79 q 179 90 175 85 q 188 99 183 94 q 199 122 194 110 q 207 149 204 135 q 213 199 214 175 q 206 244 213 224 q 191 283 200 267 q 172 310 182 300 q 155 322 161 319 q 144 324 149 324 q 132 324 138 325 q 120 323 126 322 q 108 326 114 324 q 96 339 103 329 q 101 347 94 342 q 122 360 107 353 q 163 361 138 367 q 187 352 174 358 q 208 336 200 346 q 234 304 224 322 q 251 265 244 286 q 258 277 254 272 q 267 289 263 282 l 272 297 l 275 299 l 276 301 l 281 304 l 293 318 q 310 331 301 325 q 326 342 318 336 q 363 360 343 353 q 407 364 383 367 q 431 357 417 364 q 435 355 433 356 q 443 351 438 354 l 450 346 q 469 299 472 324 q 460 259 468 275 q 442 228 453 243 q 421 206 433 217 q 397 189 408 196 q 376 175 386 181 q 356 165 365 169 q 322 151 336 156 q 301 146 308 147 q 258 142 276 140 q 259 135 258 139 q 260 129 260 132 q 263 115 260 122 q 268 99 265 107 q 303 65 276 74 q 356 61 331 57 q 401 74 382 64 q 433 96 421 85 q 440 103 438 100 q 447 110 443 107 q 466 115 458 121 q 472 97 474 108 q 467 83 471 90 q 457 71 463 76 q 440 56 453 65 q 408 39 428 47 q 362 24 389 29 q 300 25 335 18 q 266 39 283 29 q 238 67 249 49 l 235 72 q 232 76 235 71 l 232 78 q 194 42 217 56 q 184 36 189 39 q 172 31 179 33 q 156 25 167 28 q 134 22 144 22 q 113 19 124 21 q 70 30 90 21 q 35 56 50 39 q 10 122 11 86 q 18 237 0 186 q 64 315 36 288 q 86 328 79 328 m 279 225 q 270 201 274 213 q 264 176 267 189 q 297 185 276 179 q 340 206 317 192 q 382 233 364 218 q 401 251 390 239 l 407 258 l 408 260 l 410 263 l 417 275 q 424 297 424 288 q 421 310 424 307 q 374 314 403 324 q 319 280 344 303 q 279 225 294 257 z "},"¿":{"ha":301,"x_min":28,"x_max":282,"o":"m 217 379 q 202 283 217 336 q 167 176 188 231 q 124 69 146 122 q 90 -29 103 17 q 77 -110 76 -75 q 100 -162 78 -144 q 131 -168 114 -172 q 188 -137 158 -162 q 235 -87 218 -112 q 250 -76 240 -79 q 269 -79 260 -74 q 279 -94 276 -85 q 276 -112 282 -104 q 251 -144 267 -128 q 217 -176 235 -161 q 178 -201 199 -190 q 139 -215 158 -211 q 69 -201 100 -224 q 34 -144 40 -179 q 38 -65 28 -108 q 66 29 47 -21 q 106 132 85 79 q 144 239 126 185 q 165 344 161 293 l 185 401 q 207 399 196 406 q 217 379 217 393 m 194 439 q 191 440 192 439 q 188 440 190 440 q 183 443 186 440 q 182 456 182 446 q 181 450 182 453 q 170 444 182 443 q 151 460 158 446 q 147 474 149 467 q 147 490 146 481 q 158 511 150 500 q 189 522 169 525 q 205 519 197 521 q 222 511 213 518 q 235 492 232 506 q 237 481 238 486 q 235 469 236 475 q 224 453 231 458 q 211 443 218 447 l 194 439 m 193 476 l 193 475 q 196 476 196 475 l 193 476 z "},"À":{"ha":507,"x_min":11,"x_max":517,"o":"m 25 -6 q 14 8 17 -1 q 15 24 11 17 q 36 72 18 29 q 80 173 54 114 q 135 299 106 232 q 188 424 164 367 q 229 520 213 482 q 247 560 246 558 q 256 570 250 567 q 267 574 261 574 q 279 570 274 574 q 288 560 285 567 l 514 26 q 513 10 517 18 q 503 -1 510 1 q 485 -2 493 -6 q 474 10 476 1 l 396 192 l 136 192 q 81 65 104 118 q 54 6 57 13 q 35 -7 47 -7 q 25 -6 29 -7 m 267 496 q 244 444 257 474 q 217 380 232 414 q 185 309 201 346 q 154 236 169 272 l 378 236 l 267 496 m 333 650 q 323 628 326 629 q 314 628 319 626 q 303 631 311 629 q 285 636 296 633 q 260 646 274 640 q 236 657 247 651 q 189 683 208 669 q 167 699 169 696 q 167 704 167 699 q 174 718 167 710 q 185 729 181 726 l 190 729 q 207 722 197 726 q 229 713 217 717 q 253 702 240 707 q 278 690 265 697 q 321 672 303 681 q 333 650 339 663 z "},"Á":{"ha":507,"x_min":11,"x_max":517,"o":"m 25 -6 q 14 8 17 -1 q 15 24 11 17 q 36 72 18 29 q 80 173 54 114 q 135 299 106 232 q 188 424 164 367 q 229 520 213 482 q 247 560 246 558 q 256 570 250 567 q 267 574 261 574 q 279 570 274 574 q 288 560 285 567 l 514 26 q 513 10 517 18 q 503 -1 510 1 q 485 -2 493 -6 q 474 10 476 1 l 396 192 l 136 192 q 81 65 104 118 q 54 6 57 13 q 35 -7 47 -7 q 25 -6 29 -7 m 267 496 q 244 444 257 474 q 217 380 232 414 q 185 309 201 346 q 154 236 169 272 l 378 236 l 267 496 m 174 650 q 186 672 168 663 q 229 690 204 681 q 254 702 242 697 q 278 713 267 707 q 300 722 290 717 q 317 729 310 726 l 322 729 q 333 718 326 726 q 340 704 340 710 q 340 699 340 699 q 318 683 338 696 q 271 657 299 669 q 247 646 260 651 q 222 636 233 640 q 203 631 211 633 q 193 628 196 629 q 184 628 188 626 q 174 650 181 629 z "},"Â":{"ha":507,"x_min":11,"x_max":517,"o":"m 25 -6 q 14 8 17 -1 q 15 24 11 17 q 36 72 18 29 q 80 173 54 114 q 135 299 106 232 q 188 424 164 367 q 229 520 213 482 q 247 560 246 558 q 256 570 250 567 q 267 574 261 574 q 279 570 274 574 q 288 560 285 567 l 514 26 q 513 10 517 18 q 503 -1 510 1 q 485 -2 493 -6 q 474 10 476 1 l 396 192 l 136 192 q 81 65 104 118 q 54 6 57 13 q 35 -7 47 -7 q 25 -6 29 -7 m 267 496 q 244 444 257 474 q 217 380 232 414 q 185 309 201 346 q 154 236 169 272 l 378 236 l 267 496 m 399 650 q 388 628 392 629 q 379 628 385 626 l 350 636 q 326 646 339 640 q 301 657 313 651 q 274 670 286 664 q 253 683 263 676 q 231 670 243 676 q 206 657 219 664 q 181 646 194 651 q 157 636 168 640 l 128 628 q 119 628 122 626 q 108 650 115 629 q 121 672 103 663 q 164 690 139 681 l 213 713 q 231 719 224 715 q 246 726 239 724 l 250 729 l 257 729 q 260 728 257 728 q 275 720 267 725 q 294 713 283 715 l 343 690 q 386 672 368 681 q 399 650 404 663 z "},"Ã":{"ha":507,"x_min":11,"x_max":517,"o":"m 25 -6 q 14 8 17 -1 q 15 24 11 17 q 36 72 18 29 q 80 173 54 114 q 135 299 106 232 q 188 424 164 367 q 229 520 213 482 q 247 560 246 558 q 256 570 250 567 q 267 574 261 574 q 279 570 274 574 q 288 560 285 567 l 514 26 q 513 10 517 18 q 503 -1 510 1 q 485 -2 493 -6 q 474 10 476 1 l 396 192 l 136 192 q 81 65 104 118 q 54 6 57 13 q 35 -7 47 -7 q 25 -6 29 -7 m 267 496 q 244 444 257 474 q 217 380 232 414 q 185 309 201 346 q 154 236 169 272 l 378 236 l 267 496 m 146 661 q 177 667 157 658 q 221 688 197 675 l 229 692 q 297 720 263 708 q 360 721 332 732 q 410 665 394 706 l 408 667 q 410 650 415 657 q 396 636 406 643 q 381 638 389 633 q 368 649 372 642 q 356 667 363 658 q 342 678 349 675 q 294 674 322 686 q 235 644 265 661 l 222 639 q 186 624 204 631 q 150 618 168 618 q 126 622 136 618 q 93 667 99 636 q 94 685 90 676 q 107 696 99 693 q 136 678 129 701 q 143 664 138 665 l 146 661 z "},"Æ":{"ha":853,"x_min":11,"x_max":846,"o":"m 25 -6 q 14 8 17 -1 q 15 24 11 17 l 247 560 q 256 570 250 567 q 267 574 261 574 q 279 570 274 574 q 288 560 285 567 l 465 139 q 466 157 465 149 q 467 175 467 165 q 467 292 467 231 q 469 407 468 353 q 469 501 469 461 q 468 551 469 540 l 468 553 q 469 554 468 554 q 469 556 469 554 q 471 560 469 558 q 472 563 471 563 q 472 564 472 563 q 474 568 472 567 q 478 569 476 568 q 481 572 481 572 q 484 573 483 572 q 486 574 485 574 q 489 575 486 574 l 825 575 q 846 553 846 575 q 825 531 846 531 l 513 531 l 513 279 l 668 279 q 683 272 676 279 q 690 256 690 265 q 683 241 690 247 q 668 235 676 235 l 511 235 l 511 175 q 510 101 510 135 q 510 44 510 67 l 825 44 q 846 21 846 44 q 825 0 846 0 l 506 0 q 503 -1 503 0 q 478 1 488 -8 q 465 21 465 7 l 465 29 l 396 192 l 136 192 q 81 65 104 118 q 54 6 57 13 q 35 -7 47 -7 q 25 -6 29 -7 m 267 496 q 244 444 257 474 q 217 380 232 414 q 185 309 201 346 q 154 236 169 272 l 378 236 l 267 496 z "},"È":{"ha":390,"x_min":26,"x_max":407,"o":"m 47 0 q 33 6 39 0 q 26 21 26 11 q 26 81 26 40 q 28 175 26 122 q 28 292 28 231 q 30 407 29 353 q 31 501 31 461 q 29 551 31 540 l 29 553 q 30 554 29 554 q 31 556 31 554 q 32 560 31 558 q 33 563 32 563 q 33 564 33 563 q 35 568 33 567 q 39 569 38 568 q 42 572 42 572 q 45 573 44 572 q 47 574 46 574 q 50 575 47 574 l 51 575 l 386 575 q 407 553 407 575 q 386 531 407 531 l 74 531 l 74 279 l 229 279 q 244 272 238 279 q 251 256 251 265 q 244 241 251 247 q 229 235 238 235 l 72 235 l 72 175 q 71 101 71 135 q 71 44 71 67 l 386 44 q 407 21 407 44 q 386 0 407 0 l 47 0 l 47 0 m 275 650 q 265 628 268 629 q 256 628 261 626 q 245 631 253 629 q 226 636 238 633 q 202 646 215 640 q 178 657 189 651 q 131 683 150 669 q 108 699 111 696 q 108 704 108 699 q 115 718 108 710 q 126 729 122 726 l 132 729 q 149 722 139 726 q 171 713 158 717 q 194 702 182 707 q 219 690 207 697 q 263 672 244 681 q 275 650 281 663 z "},"É":{"ha":390,"x_min":26,"x_max":407,"o":"m 47 0 q 33 6 39 0 q 26 21 26 11 q 26 81 26 40 q 28 175 26 122 q 28 292 28 231 q 30 407 29 353 q 31 501 31 461 q 29 551 31 540 l 29 553 q 30 554 29 554 q 31 556 31 554 q 32 560 31 558 q 33 563 32 563 q 33 564 33 563 q 35 568 33 567 q 39 569 38 568 q 42 572 42 572 q 45 573 44 572 q 47 574 46 574 q 50 575 47 574 l 51 575 l 386 575 q 407 553 407 575 q 386 531 407 531 l 74 531 l 74 279 l 229 279 q 244 272 238 279 q 251 256 251 265 q 244 241 251 247 q 229 235 238 235 l 72 235 l 72 175 q 71 101 71 135 q 71 44 71 67 l 386 44 q 407 21 407 44 q 386 0 407 0 l 47 0 l 47 0 m 115 650 q 128 672 110 663 q 171 690 146 681 q 196 702 183 697 q 219 713 208 707 q 242 722 232 717 q 258 729 251 726 l 264 729 q 275 718 268 726 q 282 704 282 710 q 282 699 282 699 q 260 683 279 696 q 213 657 240 669 q 188 646 201 651 q 164 636 175 640 q 145 631 153 633 q 135 628 138 629 q 126 628 129 626 q 115 650 122 629 z "},"Ê":{"ha":390,"x_min":26,"x_max":407,"o":"m 47 0 q 33 6 39 0 q 26 21 26 11 q 26 81 26 40 q 28 175 26 122 q 28 292 28 231 q 30 407 29 353 q 31 501 31 461 q 29 551 31 540 l 29 553 q 30 554 29 554 q 31 556 31 554 q 32 560 31 558 q 33 563 32 563 q 33 564 33 563 q 35 568 33 567 q 39 569 38 568 q 42 572 42 572 q 45 573 44 572 q 47 574 46 574 q 50 575 47 574 l 51 575 l 386 575 q 407 553 407 575 q 386 531 407 531 l 74 531 l 74 279 l 229 279 q 244 272 238 279 q 251 256 251 265 q 244 241 251 247 q 229 235 238 235 l 72 235 l 72 175 q 71 101 71 135 q 71 44 71 67 l 386 44 q 407 21 407 44 q 386 0 407 0 l 47 0 l 47 0 m 340 650 q 330 628 333 629 q 321 628 326 626 l 292 636 q 267 646 281 640 q 243 657 254 651 q 216 670 228 664 q 194 683 204 676 q 173 670 185 676 q 147 657 161 664 q 123 646 136 651 q 99 636 110 640 l 69 628 q 60 628 64 626 q 50 650 57 629 q 63 672 44 663 q 106 690 81 681 l 154 713 q 173 719 165 715 q 188 726 181 724 l 192 729 l 199 729 q 201 728 199 728 q 217 720 208 725 q 236 713 225 715 l 285 690 q 328 672 310 681 q 340 650 346 663 z "},"Ì":{"ha":86,"x_min":-43,"x_max":129,"o":"m 46 1 q 30 8 36 1 q 24 22 24 14 q 24 82 24 40 q 25 176 25 124 q 27 292 26 231 q 28 408 28 354 q 28 502 28 463 q 28 553 28 542 q 47 576 25 574 q 71 556 68 576 q 71 504 71 543 q 71 412 71 465 q 70 297 71 358 q 68 176 69 235 q 67 82 68 124 q 67 22 67 40 q 61 8 67 14 q 46 1 56 1 m 124 650 q 113 628 117 629 q 104 628 110 626 q 94 631 101 629 q 75 636 86 633 q 51 646 64 640 q 26 657 38 651 q -21 683 -1 669 q -43 699 -40 696 q -43 704 -43 699 q -36 718 -43 710 q -25 729 -29 726 l -19 729 q -3 722 -12 726 q 19 713 7 717 q 43 702 31 707 q 68 690 56 697 q 111 672 93 681 q 124 650 129 663 z "},"Í":{"ha":86,"x_min":-42,"x_max":131,"o":"m 46 1 q 30 8 36 1 q 24 22 24 14 q 24 82 24 40 q 25 176 25 124 q 27 292 26 231 q 28 408 28 354 q 28 502 28 463 q 28 553 28 542 q 47 576 25 574 q 71 556 68 576 q 71 504 71 543 q 71 412 71 465 q 70 297 71 358 q 68 176 69 235 q 67 82 68 124 q 67 22 67 40 q 61 8 67 14 q 46 1 56 1 m -36 650 q -24 672 -42 663 q 19 690 -6 681 q 44 702 32 697 q 68 713 57 707 q 90 722 81 717 q 107 729 100 726 l 113 729 q 124 718 117 726 q 131 704 131 710 q 131 699 131 699 q 108 683 128 696 q 61 657 89 669 q 37 646 50 651 q 13 636 24 640 q -6 631 1 633 q -17 628 -14 629 q -26 628 -22 626 q -36 650 -29 629 z "},"Î":{"ha":86,"x_min":-107,"x_max":194,"o":"m 46 1 q 30 8 36 1 q 24 22 24 14 q 24 82 24 40 q 25 176 25 124 q 27 292 26 231 q 28 408 28 354 q 28 502 28 463 q 28 553 28 542 q 47 576 25 574 q 71 556 68 576 q 71 504 71 543 q 71 412 71 465 q 70 297 71 358 q 68 176 69 235 q 67 82 68 124 q 67 22 67 40 q 61 8 67 14 q 46 1 56 1 m 189 650 q 178 628 182 629 q 169 628 175 626 l 140 636 q 116 646 129 640 q 92 657 103 651 q 65 670 76 664 q 43 683 53 676 q 22 670 33 676 q -4 657 10 664 q -28 646 -15 651 q -53 636 -42 640 l -82 628 q -91 628 -87 626 q -101 650 -94 629 q -89 672 -107 663 q -46 690 -71 681 l 3 713 q 22 719 14 715 q 36 726 29 724 l 40 729 l 47 729 q 50 728 47 728 q 65 720 57 725 q 85 713 74 715 l 133 690 q 176 672 158 681 q 189 650 194 663 z "},"Ð":{"ha":453,"x_min":-111,"x_max":447,"o":"m -96 242 q -106 244 -100 242 q -110 258 -111 249 q -106 272 -110 268 q -97 276 -101 276 q -53 278 -89 278 q 28 279 -17 278 l 28 551 q 49 574 28 574 q 394 458 296 574 q 431 401 419 429 q 444 348 442 372 q 446 308 447 324 q 444 292 444 293 q 417 195 444 238 q 347 120 389 153 q 256 65 306 88 q 162 28 206 43 q 88 7 118 14 q 53 -1 57 0 l 49 -1 q 35 4 40 -1 q 28 21 28 8 l 28 236 q -44 240 -11 238 q -96 242 -76 242 m 71 281 l 222 293 q 238 291 232 293 q 247 267 244 289 q 236 256 247 261 q 206 248 225 251 q 160 242 186 244 q 104 238 133 239 q 88 236 96 236 q 71 236 79 236 l 71 47 q 157 72 101 54 q 267 120 213 90 q 361 194 321 150 q 401 296 401 238 q 402 310 401 297 q 400 343 403 324 q 388 385 397 363 q 360 432 379 408 q 71 531 282 524 l 71 281 z "},"Ñ":{"ha":506,"x_min":21,"x_max":496,"o":"m 482 0 q 475 -1 481 -1 q 458 6 465 -1 l 64 489 l 64 22 q 58 6 64 13 q 43 0 51 0 q 21 22 21 0 l 21 550 q 25 563 21 557 q 36 569 29 568 q 60 564 50 576 l 453 82 l 453 550 q 459 565 453 558 q 475 571 465 571 q 490 565 483 571 q 496 550 496 558 l 496 19 q 482 0 496 4 m 146 661 q 177 667 157 658 q 221 688 197 675 l 229 692 q 297 720 263 708 q 360 721 332 732 q 410 665 394 706 l 408 667 q 410 650 415 657 q 396 636 406 643 q 381 638 389 633 q 368 649 372 642 q 356 667 363 658 q 342 678 349 675 q 294 674 322 686 q 235 644 265 661 l 222 639 q 186 624 204 631 q 150 618 168 618 q 126 622 136 618 q 93 667 99 636 q 94 685 90 676 q 107 696 99 693 q 136 678 129 701 q 143 664 138 665 l 146 661 z "},"Ò":{"ha":526,"x_min":19,"x_max":518,"o":"m 276 479 q 372 461 326 479 q 451 407 417 443 q 501 328 485 372 q 517 236 518 285 q 493 142 514 186 q 438 66 472 99 q 358 15 403 33 q 261 -4 313 -4 q 166 14 211 -4 q 88 68 121 32 q 37 147 54 103 q 22 239 19 190 q 44 333 24 289 q 100 409 65 376 q 180 460 135 442 q 276 479 225 479 m 261 44 q 340 60 303 44 q 404 101 376 75 q 449 163 432 128 q 468 239 467 199 q 456 311 469 276 q 417 374 443 346 q 353 416 389 401 q 276 431 317 431 q 198 415 235 431 q 133 374 161 400 q 89 312 106 347 q 71 236 72 276 q 83 164 69 199 q 122 101 96 129 q 185 59 150 74 q 261 44 221 44 m 265 299 q 308 281 290 299 q 322 244 322 267 q 304 208 321 222 q 263 193 288 193 q 219 210 236 193 q 206 246 203 226 q 223 283 206 268 q 265 299 240 299 m 263 242 q 274 246 274 242 q 265 250 274 250 q 254 244 254 250 q 256 243 254 243 q 263 242 257 242 m 343 650 q 333 628 336 629 q 324 628 329 626 q 313 631 321 629 q 294 636 306 633 q 270 646 283 640 q 246 657 257 651 q 199 683 218 669 q 176 699 179 696 q 176 704 176 699 q 183 718 176 710 q 194 729 190 726 l 200 729 q 217 722 207 726 q 239 713 226 717 q 263 702 250 707 q 288 690 275 697 q 331 672 313 681 q 343 650 349 663 z "},"Ó":{"ha":526,"x_min":19,"x_max":518,"o":"m 276 479 q 372 461 326 479 q 451 407 417 443 q 501 328 485 372 q 517 236 518 285 q 493 142 514 186 q 438 66 472 99 q 358 15 403 33 q 261 -4 313 -4 q 166 14 211 -4 q 88 68 121 32 q 37 147 54 103 q 22 239 19 190 q 44 333 24 289 q 100 409 65 376 q 180 460 135 442 q 276 479 225 479 m 261 44 q 340 60 303 44 q 404 101 376 75 q 449 163 432 128 q 468 239 467 199 q 456 311 469 276 q 417 374 443 346 q 353 416 389 401 q 276 431 317 431 q 198 415 235 431 q 133 374 161 400 q 89 312 106 347 q 71 236 72 276 q 83 164 69 199 q 122 101 96 129 q 185 59 150 74 q 261 44 221 44 m 265 299 q 308 281 290 299 q 322 244 322 267 q 304 208 321 222 q 263 193 288 193 q 219 210 236 193 q 206 246 203 226 q 223 283 206 268 q 265 299 240 299 m 263 242 q 274 246 274 242 q 265 250 274 250 q 254 244 254 250 q 256 243 254 243 q 263 242 257 242 m 183 650 q 196 672 178 663 q 239 690 214 681 q 264 702 251 697 q 288 713 276 707 q 310 722 300 717 q 326 729 319 726 l 332 729 q 343 718 336 726 q 350 704 350 710 q 350 699 350 699 q 328 683 347 696 q 281 657 308 669 q 256 646 269 651 q 232 636 243 640 q 213 631 221 633 q 203 628 206 629 q 194 628 197 626 q 183 650 190 629 z "},"Ô":{"ha":526,"x_min":19,"x_max":518,"o":"m 276 479 q 372 461 326 479 q 451 407 417 443 q 501 328 485 372 q 517 236 518 285 q 493 142 514 186 q 438 66 472 99 q 358 15 403 33 q 261 -4 313 -4 q 166 14 211 -4 q 88 68 121 32 q 37 147 54 103 q 22 239 19 190 q 44 333 24 289 q 100 409 65 376 q 180 460 135 442 q 276 479 225 479 m 261 44 q 340 60 303 44 q 404 101 376 75 q 449 163 432 128 q 468 239 467 199 q 456 311 469 276 q 417 374 443 346 q 353 416 389 401 q 276 431 317 431 q 198 415 235 431 q 133 374 161 400 q 89 312 106 347 q 71 236 72 276 q 83 164 69 199 q 122 101 96 129 q 185 59 150 74 q 261 44 221 44 m 265 299 q 308 281 290 299 q 322 244 322 267 q 304 208 321 222 q 263 193 288 193 q 219 210 236 193 q 206 246 203 226 q 223 283 206 268 q 265 299 240 299 m 263 242 q 274 246 274 242 q 265 250 274 250 q 254 244 254 250 q 256 243 254 243 q 263 242 257 242 m 408 650 q 398 628 401 629 q 389 628 394 626 l 360 636 q 335 646 349 640 q 311 657 322 651 q 284 670 296 664 q 263 683 272 676 q 241 670 253 676 q 215 657 229 664 q 191 646 204 651 q 167 636 178 640 l 138 628 q 128 628 132 626 q 118 650 125 629 q 131 672 113 663 q 174 690 149 681 l 222 713 q 241 719 233 715 q 256 726 249 724 l 260 729 l 267 729 q 269 728 267 728 q 285 720 276 725 q 304 713 293 715 l 353 690 q 396 672 378 681 q 408 650 414 663 z "},"Õ":{"ha":526,"x_min":19,"x_max":518,"o":"m 276 479 q 372 461 326 479 q 451 407 417 443 q 501 328 485 372 q 517 236 518 285 q 493 142 514 186 q 438 66 472 99 q 358 15 403 33 q 261 -4 313 -4 q 166 14 211 -4 q 88 68 121 32 q 37 147 54 103 q 22 239 19 190 q 44 333 24 289 q 100 409 65 376 q 180 460 135 442 q 276 479 225 479 m 261 44 q 340 60 303 44 q 404 101 376 75 q 449 163 432 128 q 468 239 467 199 q 456 311 469 276 q 417 374 443 346 q 353 416 389 401 q 276 431 317 431 q 198 415 235 431 q 133 374 161 400 q 89 312 106 347 q 71 236 72 276 q 83 164 69 199 q 122 101 96 129 q 185 59 150 74 q 261 44 221 44 m 265 299 q 308 281 290 299 q 322 244 322 267 q 304 208 321 222 q 263 193 288 193 q 219 210 236 193 q 206 246 203 226 q 223 283 206 268 q 265 299 240 299 m 263 242 q 274 246 274 242 q 265 250 274 250 q 254 244 254 250 q 256 243 254 243 q 263 242 257 242 m 156 661 q 187 667 167 658 q 231 688 207 675 l 239 692 q 307 720 272 708 q 369 721 342 732 q 419 665 404 706 l 418 667 q 420 650 425 657 q 406 636 415 643 q 390 638 399 633 q 378 649 382 642 q 365 667 372 658 q 351 678 358 675 q 303 674 332 686 q 244 644 275 661 l 232 639 q 196 624 214 631 q 160 618 178 618 q 136 622 146 618 q 103 667 108 636 q 104 685 100 676 q 117 696 108 693 q 146 678 139 701 q 153 664 147 665 l 156 661 z "},"×":{"ha":265,"x_min":17,"x_max":256,"o":"m 201 38 q 178 74 197 44 q 135 139 158 103 l 75 38 q 63 26 69 31 q 35 35 57 22 q 32 51 28 38 q 48 86 36 65 q 75 132 60 107 q 107 182 90 157 q 78 225 92 203 q 52 265 64 247 q 33 297 40 283 q 24 315 25 311 q 17 330 17 324 q 40 350 17 336 q 56 344 46 353 q 77 317 65 335 q 103 276 89 299 q 132 228 117 253 q 180 300 156 264 q 217 354 204 336 q 225 361 221 360 q 243 358 235 364 q 254 349 251 353 q 253 335 256 339 l 254 336 q 244 317 251 332 q 224 282 236 303 q 196 237 211 261 q 165 188 181 213 l 235 58 q 240 49 240 53 q 227 36 238 40 q 211 33 217 32 q 201 39 203 33 l 201 38 l 201 38 z "},"Ø":{"ha":526,"x_min":19,"x_max":518,"o":"m 154 -71 q 139 -64 143 -71 q 138 -47 135 -57 q 147 -22 140 -37 q 161 15 154 -6 q 88 68 119 35 q 37 147 54 103 q 22 239 19 190 q 44 333 24 289 q 100 409 65 376 q 180 460 135 442 q 276 479 225 479 q 333 472 303 479 q 372 572 356 531 q 390 625 388 614 q 402 643 393 636 q 422 651 411 650 q 440 628 447 651 l 378 458 q 451 407 419 439 q 501 328 485 372 q 517 236 518 285 q 493 142 514 186 q 438 66 472 99 q 358 15 403 33 q 261 -4 313 -4 q 232 -3 246 -4 q 204 1 218 -1 l 186 -47 q 174 -64 183 -57 q 154 -71 165 -71 m 261 44 q 340 60 303 44 q 404 101 376 75 q 449 163 432 128 q 468 239 467 199 q 456 311 469 276 q 417 374 443 346 q 360 413 393 397 l 308 279 q 322 244 322 265 q 276 194 319 204 l 249 124 l 222 47 q 241 45 232 46 q 261 44 250 44 m 268 299 l 317 426 q 276 431 296 431 q 198 415 235 431 q 133 374 161 400 q 89 312 106 347 q 71 236 72 276 q 83 164 69 199 q 122 101 96 129 q 149 78 135 88 q 179 61 164 68 l 201 124 l 231 201 q 219 210 224 204 q 206 246 203 226 q 223 283 206 268 q 265 299 240 299 l 268 299 z "},"Ù":{"ha":494,"x_min":35,"x_max":485,"o":"m 97 444 q 85 340 90 392 q 80 241 79 288 q 90 155 81 194 q 122 89 99 115 q 249 43 164 43 l 250 43 q 375 93 331 43 q 422 188 408 131 q 438 307 436 244 q 435 432 440 369 q 424 544 429 494 l 424 549 q 443 574 421 571 q 458 569 451 575 q 467 554 465 564 l 468 550 q 479 431 474 497 q 481 297 485 364 q 462 169 478 231 q 408 65 446 107 q 250 0 351 0 l 249 0 q 90 60 142 0 q 51 135 63 92 q 37 231 39 179 q 41 338 35 282 q 54 451 47 394 q 60 503 57 478 q 67 554 64 528 q 74 569 68 563 q 90 574 81 575 q 104 565 99 572 q 108 550 110 558 q 103 499 107 525 q 97 444 100 472 m 326 650 q 316 628 319 629 q 307 628 313 626 q 297 631 304 629 q 278 636 289 633 q 253 646 267 640 q 229 657 240 651 q 182 683 201 669 q 160 699 163 696 q 160 704 160 699 q 167 718 160 710 q 178 729 174 726 l 183 729 q 200 722 190 726 q 222 713 210 717 q 246 702 233 707 q 271 690 258 697 q 314 672 296 681 q 326 650 332 663 z "},"Ú":{"ha":494,"x_min":35,"x_max":485,"o":"m 97 444 q 85 340 90 392 q 80 241 79 288 q 90 155 81 194 q 122 89 99 115 q 249 43 164 43 l 250 43 q 375 93 331 43 q 422 188 408 131 q 438 307 436 244 q 435 432 440 369 q 424 544 429 494 l 424 549 q 443 574 421 571 q 458 569 451 575 q 467 554 465 564 l 468 550 q 479 431 474 497 q 481 297 485 364 q 462 169 478 231 q 408 65 446 107 q 250 0 351 0 l 249 0 q 90 60 142 0 q 51 135 63 92 q 37 231 39 179 q 41 338 35 282 q 54 451 47 394 q 60 503 57 478 q 67 554 64 528 q 74 569 68 563 q 90 574 81 575 q 104 565 99 572 q 108 550 110 558 q 103 499 107 525 q 97 444 100 472 m 167 650 q 179 672 161 663 q 222 690 197 681 q 247 702 235 697 q 271 713 260 707 q 293 722 283 717 q 310 729 303 726 l 315 729 q 326 718 319 726 q 333 704 333 710 q 333 699 333 699 q 311 683 331 696 q 264 657 292 669 q 240 646 253 651 q 215 636 226 640 q 197 631 204 633 q 186 628 189 629 q 177 628 181 626 q 167 650 174 629 z "},"Û":{"ha":494,"x_min":35,"x_max":485,"o":"m 97 444 q 85 340 90 392 q 80 241 79 288 q 90 155 81 194 q 122 89 99 115 q 249 43 164 43 l 250 43 q 375 93 331 43 q 422 188 408 131 q 438 307 436 244 q 435 432 440 369 q 424 544 429 494 l 424 549 q 443 574 421 571 q 458 569 451 575 q 467 554 465 564 l 468 550 q 479 431 474 497 q 481 297 485 364 q 462 169 478 231 q 408 65 446 107 q 250 0 351 0 l 249 0 q 90 60 142 0 q 51 135 63 92 q 37 231 39 179 q 41 338 35 282 q 54 451 47 394 q 60 503 57 478 q 67 554 64 528 q 74 569 68 563 q 90 574 81 575 q 104 565 99 572 q 108 550 110 558 q 103 499 107 525 q 97 444 100 472 m 392 650 q 381 628 385 629 q 372 628 378 626 l 343 636 q 319 646 332 640 q 294 657 306 651 q 267 670 279 664 q 246 683 256 676 q 224 670 236 676 q 199 657 213 664 q 174 646 188 651 q 150 636 161 640 l 121 628 q 112 628 115 626 q 101 650 108 629 q 114 672 96 663 q 157 690 132 681 l 206 713 q 224 719 217 715 q 239 726 232 724 l 243 729 l 250 729 q 253 728 250 728 q 268 720 260 725 q 288 713 276 715 l 336 690 q 379 672 361 681 q 392 650 397 663 z "},"Ý":{"ha":489,"x_min":31,"x_max":475,"o":"m 243 101 q 74 161 125 101 q 41 224 50 189 q 31 299 32 260 q 36 382 31 339 q 49 468 42 425 q 56 511 53 490 q 61 551 58 532 q 85 571 64 574 q 103 546 107 565 q 98 505 101 525 q 92 463 94 485 q 80 383 85 422 q 75 308 75 344 q 82 242 75 272 q 107 190 89 211 q 243 144 146 144 q 382 196 336 144 q 432 357 428 247 l 432 358 l 432 550 q 438 566 432 560 q 453 572 444 572 q 475 550 475 572 l 475 21 q 469 6 475 13 q 453 0 463 0 q 438 6 444 0 q 432 21 432 13 l 432 192 q 243 101 374 101 m 164 650 q 176 672 158 663 q 219 690 194 681 q 244 702 232 697 q 268 713 257 707 q 290 722 281 717 q 307 729 300 726 l 313 729 q 324 718 317 726 q 331 704 331 710 q 331 699 331 699 q 308 683 328 696 q 261 657 289 669 q 237 646 250 651 q 213 636 224 640 q 194 631 201 633 q 183 628 186 629 q 174 628 178 626 q 164 650 171 629 z "},"à":{"ha":290,"x_min":4,"x_max":282,"o":"m 13 100 q 10 112 11 107 q 7 125 8 117 q 10 183 4 156 q 27 235 15 211 q 54 279 39 260 q 86 314 69 299 q 151 353 119 344 q 192 364 182 363 q 225 362 213 367 q 233 336 238 357 q 213 328 232 329 q 164 313 193 326 q 106 269 136 300 q 60 193 75 238 q 51 148 51 172 q 58 104 50 124 q 80 73 65 85 q 115 64 94 61 q 188 88 156 67 q 235 125 219 108 q 235 187 235 154 q 235 248 235 219 q 236 297 236 276 q 236 322 236 317 q 240 336 238 331 q 264 342 242 342 q 276 324 272 342 q 281 277 281 306 q 281 214 282 249 q 278 146 281 179 q 274 83 276 113 q 271 38 272 54 q 269 29 271 32 q 254 25 264 24 q 240 29 244 26 q 238 38 236 33 q 236 51 236 40 q 236 76 236 61 q 210 57 225 67 q 175 38 194 47 q 129 24 156 31 q 72 29 103 18 q 45 46 57 35 q 25 71 33 57 q 19 84 22 78 q 13 100 15 90 m 269 439 q 259 417 263 418 q 250 417 256 415 q 240 420 247 418 q 221 425 232 422 q 197 435 210 429 q 172 446 183 440 q 125 472 144 458 q 103 488 106 485 q 103 493 103 488 q 110 507 103 499 q 121 518 117 515 l 126 518 q 143 510 133 515 q 165 501 153 506 q 189 491 176 496 q 214 479 201 486 q 257 460 239 469 q 269 439 275 451 z "},"á":{"ha":290,"x_min":4,"x_max":282,"o":"m 13 100 q 10 112 11 107 q 7 125 8 117 q 10 183 4 156 q 27 235 15 211 q 54 279 39 260 q 86 314 69 299 q 151 353 119 344 q 192 364 182 363 q 225 362 213 367 q 233 336 238 357 q 213 328 232 329 q 164 313 193 326 q 106 269 136 300 q 60 193 75 238 q 51 148 51 172 q 58 104 50 124 q 80 73 65 85 q 115 64 94 61 q 188 88 156 67 q 235 125 219 108 q 235 187 235 154 q 235 248 235 219 q 236 297 236 276 q 236 322 236 317 q 240 336 238 331 q 264 342 242 342 q 276 324 272 342 q 281 277 281 306 q 281 214 282 249 q 278 146 281 179 q 274 83 276 113 q 271 38 272 54 q 269 29 271 32 q 254 25 264 24 q 240 29 244 26 q 238 38 236 33 q 236 51 236 40 q 236 76 236 61 q 210 57 225 67 q 175 38 194 47 q 129 24 156 31 q 72 29 103 18 q 45 46 57 35 q 25 71 33 57 q 19 84 22 78 q 13 100 15 90 m 100 439 q 113 460 94 451 q 156 479 131 469 q 181 491 168 486 q 204 501 193 496 q 226 510 217 506 q 243 518 236 515 l 249 518 q 260 507 253 515 q 267 493 267 499 q 267 488 267 488 q 244 472 264 485 q 197 446 225 458 q 173 435 186 440 q 149 425 160 429 q 130 420 138 422 q 119 417 122 418 q 110 417 114 415 q 100 439 107 418 z "},"â":{"ha":290,"x_min":4,"x_max":331,"o":"m 13 100 q 10 112 11 107 q 7 125 8 117 q 10 183 4 156 q 27 235 15 211 q 54 279 39 260 q 86 314 69 299 q 151 353 119 344 q 192 364 182 363 q 225 362 213 367 q 233 336 238 357 q 213 328 232 329 q 164 313 193 326 q 106 269 136 300 q 60 193 75 238 q 51 148 51 172 q 58 104 50 124 q 80 73 65 85 q 115 64 94 61 q 188 88 156 67 q 235 125 219 108 q 235 187 235 154 q 235 248 235 219 q 236 297 236 276 q 236 322 236 317 q 240 336 238 331 q 264 342 242 342 q 276 324 272 342 q 281 277 281 306 q 281 214 282 249 q 278 146 281 179 q 274 83 276 113 q 271 38 272 54 q 269 29 271 32 q 254 25 264 24 q 240 29 244 26 q 238 38 236 33 q 236 51 236 40 q 236 76 236 61 q 210 57 225 67 q 175 38 194 47 q 129 24 156 31 q 72 29 103 18 q 45 46 57 35 q 25 71 33 57 q 19 84 22 78 q 13 100 15 90 m 325 439 q 315 417 318 418 q 306 417 311 415 l 276 425 q 252 435 265 429 q 228 446 239 440 q 201 459 213 453 q 179 472 189 465 q 158 459 169 465 q 132 446 146 453 q 108 435 121 440 q 83 425 94 429 l 54 417 q 45 417 49 415 q 35 439 42 418 q 47 460 29 451 q 90 479 65 469 l 139 501 q 158 508 150 504 q 172 515 165 513 l 176 518 l 183 518 q 186 517 183 517 q 201 509 193 514 q 221 501 210 504 l 269 479 q 313 460 294 469 q 325 439 331 451 z "},"ã":{"ha":290,"x_min":4,"x_max":331,"o":"m 13 100 q 10 112 11 107 q 7 125 8 117 q 10 183 4 156 q 27 235 15 211 q 54 279 39 260 q 86 314 69 299 q 151 353 119 344 q 192 364 182 363 q 225 362 213 367 q 233 336 238 357 q 213 328 232 329 q 164 313 193 326 q 106 269 136 300 q 60 193 75 238 q 51 148 51 172 q 58 104 50 124 q 80 73 65 85 q 115 64 94 61 q 188 88 156 67 q 235 125 219 108 q 235 187 235 154 q 235 248 235 219 q 236 297 236 276 q 236 322 236 317 q 240 336 238 331 q 264 342 242 342 q 276 324 272 342 q 281 277 281 306 q 281 214 282 249 q 278 146 281 179 q 274 83 276 113 q 271 38 272 54 q 269 29 271 32 q 254 25 264 24 q 240 29 244 26 q 238 38 236 33 q 236 51 236 40 q 236 76 236 61 q 210 57 225 67 q 175 38 194 47 q 129 24 156 31 q 72 29 103 18 q 45 46 57 35 q 25 71 33 57 q 19 84 22 78 q 13 100 15 90 m 61 450 q 92 456 72 447 q 136 476 113 464 l 144 481 q 213 509 178 497 q 275 510 247 521 q 325 454 310 494 l 324 456 q 326 439 331 446 q 311 425 321 432 q 296 426 304 422 q 283 438 288 431 q 271 456 278 447 q 257 467 264 464 q 209 463 238 475 q 150 433 181 450 l 138 428 q 101 413 119 419 q 65 407 83 407 q 42 411 51 407 q 8 456 14 425 q 10 474 6 465 q 22 485 14 482 q 51 467 44 490 q 58 453 53 454 l 61 450 z "},"æ":{"ha":506,"x_min":4,"x_max":500,"o":"m 13 100 q 10 112 11 107 q 7 125 8 117 q 10 183 4 156 q 27 235 15 211 q 54 279 39 260 q 86 314 69 299 q 151 353 119 344 q 192 364 182 363 q 225 362 213 367 q 233 336 238 357 q 213 328 232 329 q 164 313 193 326 q 106 269 136 300 q 60 193 75 238 q 51 148 51 172 q 58 104 50 124 q 80 73 65 85 q 115 64 94 61 q 188 88 156 67 q 235 125 219 108 q 235 187 235 154 q 235 248 235 219 q 236 297 236 276 q 236 322 236 317 q 240 336 238 331 q 264 342 242 342 q 276 321 272 340 q 281 271 279 301 l 293 289 l 299 297 l 301 299 l 303 301 l 307 304 l 319 318 q 336 331 328 325 q 353 342 344 336 q 390 360 369 353 q 433 364 410 367 q 457 357 443 364 q 462 355 460 356 q 469 351 464 354 l 476 346 q 496 299 499 324 q 487 259 494 275 q 468 228 479 243 q 447 206 460 217 q 424 189 435 196 q 402 175 413 181 q 382 165 392 169 q 349 151 363 156 q 328 146 335 147 q 285 142 303 140 q 285 135 285 139 q 286 129 286 132 q 289 115 286 122 q 294 99 292 107 q 330 65 303 74 q 382 61 357 57 q 428 74 408 64 q 460 96 447 85 q 467 103 464 100 q 474 110 469 107 q 492 115 485 121 q 499 97 500 108 q 493 83 497 90 q 483 71 489 76 q 467 56 479 65 q 435 39 454 47 q 388 24 415 29 q 326 25 361 18 q 272 56 294 32 q 271 45 271 50 q 271 38 271 40 q 269 29 271 32 q 254 25 264 24 q 240 29 244 26 q 238 38 236 33 q 236 51 236 40 q 236 76 236 61 q 210 57 225 67 q 175 38 194 47 q 129 24 156 31 q 72 29 103 18 q 45 46 57 35 q 25 71 33 57 q 19 84 22 78 q 13 100 15 90 m 306 225 q 297 201 300 213 q 290 176 293 189 q 323 185 303 179 q 367 206 343 192 q 408 233 390 218 q 428 251 417 239 l 433 258 l 435 260 l 436 263 l 443 275 q 450 297 450 288 q 447 310 450 307 q 400 314 429 324 q 346 280 371 303 q 306 225 321 257 z "},"ç":{"ha":278,"x_min":-32,"x_max":271,"o":"m 53 46 q 17 94 28 65 q 6 151 6 124 q 30 260 3 208 q 97 338 57 311 q 179 368 136 365 q 216 364 200 369 q 240 351 232 358 l 243 350 l 244 349 q 259 327 257 333 q 264 318 261 321 q 269 295 268 307 q 267 274 271 283 q 251 263 261 265 q 238 272 244 263 l 233 286 q 227 301 232 292 q 215 317 222 310 q 169 322 199 328 q 113 292 140 315 q 67 232 85 268 q 50 156 50 196 q 54 118 50 136 q 69 88 58 100 q 96 69 78 76 q 111 65 104 67 q 129 63 118 63 q 188 71 164 57 q 224 100 213 85 l 235 113 q 251 114 244 119 q 260 100 258 108 q 251 81 260 90 q 242 68 249 76 q 224 50 236 60 q 193 33 211 40 q 151 22 175 25 q 128 22 136 22 q 104 25 119 22 q 92 28 100 25 l 88 17 q 83 -15 74 0 q 104 -44 93 -31 q 117 -72 115 -58 q 88 -99 118 -85 q 47 -104 67 -108 q 18 -94 28 -100 q -16 -65 -4 -83 q -29 -32 -28 -47 q -26 -25 -32 -28 q -15 -21 -21 -22 q 4 -32 -1 -21 q 14 -58 4 -43 q 38 -79 24 -72 q 57 -83 43 -83 q 83 -71 86 -82 q 69 -43 79 -60 q 52 -6 58 -26 q 67 38 46 15 q 59 42 63 40 q 53 46 56 43 z "},"è":{"ha":267,"x_min":6,"x_max":263,"o":"m 11 101 q 8 121 8 110 q 6 142 7 132 q 56 289 6 219 l 61 297 l 64 299 l 65 301 l 69 304 q 82 318 74 310 q 99 331 90 325 q 115 342 107 336 q 152 360 132 353 q 196 364 172 367 q 219 357 206 364 q 224 355 222 356 q 232 351 226 354 q 239 346 235 349 q 258 299 261 324 q 249 259 257 275 q 231 228 242 243 q 210 206 222 217 q 186 189 197 196 q 165 175 175 181 q 144 165 154 169 q 111 151 125 156 q 90 146 97 147 q 47 142 65 140 q 48 135 47 139 q 49 129 49 132 q 51 115 49 122 q 57 99 54 107 q 92 65 65 74 q 144 61 119 57 q 190 74 171 64 q 222 96 210 85 q 229 103 226 100 q 236 110 232 107 q 255 115 247 121 q 261 97 263 108 q 256 83 260 90 q 246 71 251 76 q 229 56 242 65 q 197 39 217 47 q 151 24 178 29 q 89 25 124 18 q 55 39 72 29 q 26 67 38 49 l 24 72 q 21 76 24 71 l 21 78 l 18 86 l 11 101 m 68 225 q 59 201 63 213 q 53 176 56 189 q 85 185 65 179 q 129 206 106 192 q 171 233 153 218 q 190 251 179 239 l 196 258 l 197 260 l 199 263 l 206 275 q 213 297 213 288 q 210 310 213 307 q 163 314 192 324 q 108 280 133 303 q 68 225 83 257 m 249 439 q 238 417 242 418 q 229 417 235 415 q 219 420 226 418 q 200 425 211 422 q 176 435 189 429 q 151 446 163 440 q 104 472 124 458 q 82 488 85 485 q 82 493 82 488 q 89 507 82 499 q 100 518 96 515 l 106 518 q 122 510 113 515 q 144 501 132 506 q 168 491 156 496 q 193 479 181 486 q 236 460 218 469 q 249 439 254 451 z "},"é":{"ha":267,"x_min":6,"x_max":263,"o":"m 11 101 q 8 121 8 110 q 6 142 7 132 q 56 289 6 219 l 61 297 l 64 299 l 65 301 l 69 304 q 82 318 74 310 q 99 331 90 325 q 115 342 107 336 q 152 360 132 353 q 196 364 172 367 q 219 357 206 364 q 224 355 222 356 q 232 351 226 354 q 239 346 235 349 q 258 299 261 324 q 249 259 257 275 q 231 228 242 243 q 210 206 222 217 q 186 189 197 196 q 165 175 175 181 q 144 165 154 169 q 111 151 125 156 q 90 146 97 147 q 47 142 65 140 q 48 135 47 139 q 49 129 49 132 q 51 115 49 122 q 57 99 54 107 q 92 65 65 74 q 144 61 119 57 q 190 74 171 64 q 222 96 210 85 q 229 103 226 100 q 236 110 232 107 q 255 115 247 121 q 261 97 263 108 q 256 83 260 90 q 246 71 251 76 q 229 56 242 65 q 197 39 217 47 q 151 24 178 29 q 89 25 124 18 q 55 39 72 29 q 26 67 38 49 l 24 72 q 21 76 24 71 l 21 78 l 18 86 l 11 101 m 68 225 q 59 201 63 213 q 53 176 56 189 q 85 185 65 179 q 129 206 106 192 q 171 233 153 218 q 190 251 179 239 l 196 258 l 197 260 l 199 263 l 206 275 q 213 297 213 288 q 210 310 213 307 q 163 314 192 324 q 108 280 133 303 q 68 225 83 257 m 79 439 q 92 460 74 451 q 135 479 110 469 q 160 491 147 486 q 183 501 172 496 q 206 510 196 506 q 222 518 215 515 l 228 518 q 239 507 232 515 q 246 493 246 499 q 246 488 246 488 q 224 472 243 485 q 176 446 204 458 q 152 435 165 440 q 128 425 139 429 q 109 420 117 422 q 99 417 101 418 q 90 417 93 415 q 79 439 86 418 z "},"ê":{"ha":267,"x_min":6,"x_max":322,"o":"m 11 101 q 8 121 8 110 q 6 142 7 132 q 56 289 6 219 l 61 297 l 64 299 l 65 301 l 69 304 q 82 318 74 310 q 99 331 90 325 q 115 342 107 336 q 152 360 132 353 q 196 364 172 367 q 219 357 206 364 q 224 355 222 356 q 232 351 226 354 q 239 346 235 349 q 258 299 261 324 q 249 259 257 275 q 231 228 242 243 q 210 206 222 217 q 186 189 197 196 q 165 175 175 181 q 144 165 154 169 q 111 151 125 156 q 90 146 97 147 q 47 142 65 140 q 48 135 47 139 q 49 129 49 132 q 51 115 49 122 q 57 99 54 107 q 92 65 65 74 q 144 61 119 57 q 190 74 171 64 q 222 96 210 85 q 229 103 226 100 q 236 110 232 107 q 255 115 247 121 q 261 97 263 108 q 256 83 260 90 q 246 71 251 76 q 229 56 242 65 q 197 39 217 47 q 151 24 178 29 q 89 25 124 18 q 55 39 72 29 q 26 67 38 49 l 24 72 q 21 76 24 71 l 21 78 l 18 86 l 11 101 m 68 225 q 59 201 63 213 q 53 176 56 189 q 85 185 65 179 q 129 206 106 192 q 171 233 153 218 q 190 251 179 239 l 196 258 l 197 260 l 199 263 l 206 275 q 213 297 213 288 q 210 310 213 307 q 163 314 192 324 q 108 280 133 303 q 68 225 83 257 m 317 439 q 306 417 310 418 q 297 417 303 415 l 268 425 q 244 435 257 429 q 219 446 231 440 q 192 459 204 453 q 171 472 181 465 q 149 459 161 465 q 124 446 138 453 q 99 435 113 440 q 75 425 86 429 l 46 417 q 37 417 40 415 q 26 439 33 418 q 39 460 21 451 q 82 479 57 469 l 131 501 q 149 508 142 504 q 164 515 157 513 l 168 518 l 175 518 q 178 517 175 517 q 193 509 185 514 q 213 501 201 504 l 261 479 q 304 460 286 469 q 317 439 322 451 z "},"ì":{"ha":79,"x_min":-47,"x_max":125,"o":"m 21 39 q 19 67 19 44 q 19 122 19 90 q 18 190 18 154 q 18 258 18 226 q 18 313 18 290 q 18 343 18 336 q 21 357 18 351 q 46 363 24 363 q 58 344 54 363 q 64 295 63 325 q 65 228 65 265 q 62 156 64 192 q 58 89 60 119 q 56 40 57 58 q 54 31 56 33 q 39 26 49 25 q 25 31 29 28 q 21 40 21 35 l 21 39 m 36 435 q 39 436 36 436 l 39 435 l 36 435 m 119 439 q 109 417 113 418 q 100 417 106 415 q 90 420 97 418 q 71 425 82 422 q 47 435 60 429 q 22 446 33 440 q -25 472 -6 458 q -47 488 -44 485 q -47 493 -47 488 q -40 507 -47 499 q -29 518 -33 515 l -24 518 q -7 510 -17 515 q 15 501 3 506 q 39 491 26 496 q 64 479 51 486 q 107 460 89 469 q 119 439 125 451 z "},"í":{"ha":79,"x_min":-46,"x_max":126,"o":"m 21 39 q 19 67 19 44 q 19 122 19 90 q 18 190 18 154 q 18 258 18 226 q 18 313 18 290 q 18 343 18 336 q 21 357 18 351 q 46 363 24 363 q 58 344 54 363 q 64 295 63 325 q 65 228 65 265 q 62 156 64 192 q 58 89 60 119 q 56 40 57 58 q 54 31 56 33 q 39 26 49 25 q 25 31 29 28 q 21 40 21 35 l 21 39 m 36 435 q 39 436 36 436 l 39 435 l 36 435 m -40 439 q -28 460 -46 451 q 15 479 -10 469 q 40 491 28 486 q 64 501 53 496 q 86 510 76 506 q 103 518 96 515 l 108 518 q 119 507 113 515 q 126 493 126 499 q 126 488 126 488 q 104 472 124 485 q 57 446 85 458 q 33 435 46 440 q 8 425 19 429 q -10 420 -3 422 q -21 417 -18 418 q -30 417 -26 415 q -40 439 -33 418 z "},"î":{"ha":79,"x_min":-111,"x_max":190,"o":"m 21 39 q 19 67 19 44 q 19 122 19 90 q 18 190 18 154 q 18 258 18 226 q 18 313 18 290 q 18 343 18 336 q 21 357 18 351 q 46 363 24 363 q 58 344 54 363 q 64 295 63 325 q 65 228 65 265 q 62 156 64 192 q 58 89 60 119 q 56 40 57 58 q 54 31 56 33 q 39 26 49 25 q 25 31 29 28 q 21 40 21 35 l 21 39 m 36 435 q 39 436 36 436 l 39 435 l 36 435 m 185 439 q 174 417 178 418 q 165 417 171 415 l 136 425 q 112 435 125 429 q 88 446 99 440 q 60 459 72 453 q 39 472 49 465 q 17 459 29 465 q -8 446 6 453 q -33 435 -19 440 q -57 425 -46 429 l -86 417 q -95 417 -92 415 q -106 439 -99 418 q -93 460 -111 451 q -50 479 -75 469 l -1 501 q 17 508 10 504 q 32 515 25 513 l 36 518 l 43 518 q 46 517 43 517 q 61 509 53 514 q 81 501 69 504 l 129 479 q 172 460 154 469 q 185 439 190 451 z "},"ñ":{"ha":306,"x_min":-10,"x_max":315,"o":"m 56 363 q 70 330 67 363 q 72 251 74 297 q 107 310 86 282 q 131 335 118 324 q 161 356 143 347 q 199 363 179 364 q 238 356 219 363 l 239 354 l 240 354 q 278 303 269 331 q 292 253 286 276 q 297 207 296 229 q 300 165 299 185 q 299 101 300 126 q 297 67 297 75 q 292 35 296 47 q 267 25 289 22 q 258 53 260 26 q 256 124 257 79 q 254 171 256 146 q 250 224 253 196 q 245 251 247 238 q 239 276 243 264 q 217 314 232 303 q 149 292 181 329 q 122 254 133 275 q 100 213 110 233 q 75 138 83 172 q 63 79 67 103 q 61 56 61 67 q 60 38 61 46 q 57 29 60 35 q 43 25 53 24 q 29 29 33 26 q 25 39 25 35 q 24 67 24 44 q 24 122 24 90 q 25 190 25 154 q 26 258 25 226 q 27 313 26 290 q 28 343 28 336 q 31 358 28 353 q 56 363 33 363 m 46 450 q 77 456 57 447 q 121 476 97 464 l 129 481 q 197 509 163 497 q 260 510 232 521 q 310 454 294 494 l 308 456 q 310 439 315 446 q 296 425 306 432 q 281 426 289 422 q 268 438 272 431 q 256 456 263 447 q 242 467 249 464 q 194 463 222 475 q 135 433 165 450 l 122 428 q 86 413 104 419 q 50 407 68 407 q 26 411 36 407 q -7 456 -1 425 q -6 474 -10 465 q 7 485 -1 482 q 36 467 29 490 q 43 453 38 454 l 46 450 z "},"ò":{"ha":275,"x_min":0,"x_max":265,"o":"m 86 328 q 104 320 101 329 q 101 303 107 311 q 94 296 94 299 q 90 290 93 293 l 90 292 q 70 260 85 288 q 50 186 56 232 q 51 139 49 164 q 65 92 53 114 q 80 74 71 81 q 97 65 89 68 q 110 64 104 65 q 122 65 115 63 q 129 66 125 65 q 135 65 133 67 l 150 71 q 157 73 156 72 q 161 75 158 74 q 165 78 163 76 q 171 82 168 79 q 179 90 175 85 q 188 99 183 94 q 199 122 194 110 q 207 149 204 135 q 213 199 214 175 q 206 244 213 224 q 191 283 200 267 q 172 310 182 300 q 155 322 161 319 q 144 324 149 324 q 132 324 138 325 q 120 323 126 322 q 108 326 114 324 q 96 339 103 329 q 101 347 94 342 q 122 360 107 353 q 163 361 138 367 q 187 352 174 358 q 208 336 200 346 q 240 290 228 317 q 260 233 253 264 q 262 169 265 203 q 244 101 258 136 q 226 69 238 86 q 194 42 214 53 q 184 36 189 39 q 172 31 179 33 q 156 25 167 28 q 134 22 144 22 q 113 19 124 21 q 70 30 90 21 q 35 56 50 39 q 10 122 11 86 q 18 237 0 186 q 64 315 36 288 q 86 328 79 328 m 217 439 q 206 417 210 418 q 197 417 203 415 q 187 420 194 418 q 168 425 179 422 q 144 435 157 429 q 119 446 131 440 q 72 472 92 458 q 50 488 53 485 q 50 493 50 488 q 57 507 50 499 q 68 518 64 515 l 74 518 q 90 510 81 515 q 113 501 100 506 q 136 491 124 496 q 161 479 149 486 q 204 460 186 469 q 217 439 222 451 z "},"ó":{"ha":275,"x_min":0,"x_max":265,"o":"m 86 328 q 104 320 101 329 q 101 303 107 311 q 94 296 94 299 q 90 290 93 293 l 90 292 q 70 260 85 288 q 50 186 56 232 q 51 139 49 164 q 65 92 53 114 q 80 74 71 81 q 97 65 89 68 q 110 64 104 65 q 122 65 115 63 q 129 66 125 65 q 135 65 133 67 l 150 71 q 157 73 156 72 q 161 75 158 74 q 165 78 163 76 q 171 82 168 79 q 179 90 175 85 q 188 99 183 94 q 199 122 194 110 q 207 149 204 135 q 213 199 214 175 q 206 244 213 224 q 191 283 200 267 q 172 310 182 300 q 155 322 161 319 q 144 324 149 324 q 132 324 138 325 q 120 323 126 322 q 108 326 114 324 q 96 339 103 329 q 101 347 94 342 q 122 360 107 353 q 163 361 138 367 q 187 352 174 358 q 208 336 200 346 q 240 290 228 317 q 260 233 253 264 q 262 169 265 203 q 244 101 258 136 q 226 69 238 86 q 194 42 214 53 q 184 36 189 39 q 172 31 179 33 q 156 25 167 28 q 134 22 144 22 q 113 19 124 21 q 70 30 90 21 q 35 56 50 39 q 10 122 11 86 q 18 237 0 186 q 64 315 36 288 q 86 328 79 328 m 31 439 q 43 460 25 451 q 86 479 61 469 q 111 491 99 486 q 135 501 124 496 q 157 510 147 506 q 174 518 167 515 l 179 518 q 190 507 183 515 q 197 493 197 499 q 197 488 197 488 q 175 472 194 485 q 128 446 156 458 q 103 435 117 440 q 79 425 90 429 q 60 420 68 422 q 50 417 53 418 q 41 417 44 415 q 31 439 38 418 z "},"ô":{"ha":275,"x_min":-12,"x_max":289,"o":"m 86 328 q 104 320 101 329 q 101 303 107 311 q 94 296 94 299 q 90 290 93 293 l 90 292 q 70 260 85 288 q 50 186 56 232 q 51 139 49 164 q 65 92 53 114 q 80 74 71 81 q 97 65 89 68 q 110 64 104 65 q 122 65 115 63 q 129 66 125 65 q 135 65 133 67 l 150 71 q 157 73 156 72 q 161 75 158 74 q 165 78 163 76 q 171 82 168 79 q 179 90 175 85 q 188 99 183 94 q 199 122 194 110 q 207 149 204 135 q 213 199 214 175 q 206 244 213 224 q 191 283 200 267 q 172 310 182 300 q 155 322 161 319 q 144 324 149 324 q 132 324 138 325 q 120 323 126 322 q 108 326 114 324 q 96 339 103 329 q 101 347 94 342 q 122 360 107 353 q 163 361 138 367 q 187 352 174 358 q 208 336 200 346 q 240 290 228 317 q 260 233 253 264 q 262 169 265 203 q 244 101 258 136 q 226 69 238 86 q 194 42 214 53 q 184 36 189 39 q 172 31 179 33 q 156 25 167 28 q 134 22 144 22 q 113 19 124 21 q 70 30 90 21 q 35 56 50 39 q 10 122 11 86 q 18 237 0 186 q 64 315 36 288 q 86 328 79 328 m 283 439 q 273 417 276 418 q 264 417 269 415 l 235 425 q 210 435 224 429 q 186 446 197 440 q 159 459 171 453 q 138 472 147 465 q 116 459 128 465 q 90 446 104 453 q 66 435 79 440 q 42 425 53 429 l 13 417 q 3 417 7 415 q -7 439 0 418 q 6 460 -12 451 q 49 479 24 469 l 97 501 q 116 508 108 504 q 131 515 124 513 l 135 518 l 142 518 q 144 517 142 517 q 160 509 151 514 q 179 501 168 504 l 228 479 q 271 460 253 469 q 283 439 289 451 z "},"õ":{"ha":275,"x_min":-25,"x_max":300,"o":"m 86 328 q 104 320 101 329 q 101 303 107 311 q 94 296 94 299 q 90 290 93 293 l 90 292 q 70 260 85 288 q 50 186 56 232 q 51 139 49 164 q 65 92 53 114 q 80 74 71 81 q 97 65 89 68 q 110 64 104 65 q 122 65 115 63 q 129 66 125 65 q 135 65 133 67 l 150 71 q 157 73 156 72 q 161 75 158 74 q 165 78 163 76 q 171 82 168 79 q 179 90 175 85 q 188 99 183 94 q 199 122 194 110 q 207 149 204 135 q 213 199 214 175 q 206 244 213 224 q 191 283 200 267 q 172 310 182 300 q 155 322 161 319 q 144 324 149 324 q 132 324 138 325 q 120 323 126 322 q 108 326 114 324 q 96 339 103 329 q 101 347 94 342 q 122 360 107 353 q 163 361 138 367 q 187 352 174 358 q 208 336 200 346 q 240 290 228 317 q 260 233 253 264 q 262 169 265 203 q 244 101 258 136 q 226 69 238 86 q 194 42 214 53 q 184 36 189 39 q 172 31 179 33 q 156 25 167 28 q 134 22 144 22 q 113 19 124 21 q 70 30 90 21 q 35 56 50 39 q 10 122 11 86 q 18 237 0 186 q 64 315 36 288 q 86 328 79 328 m 31 450 q 62 456 42 447 q 106 476 82 464 l 114 481 q 182 509 147 497 q 244 510 217 521 q 294 454 279 494 l 293 456 q 295 439 300 446 q 281 425 290 432 q 265 426 274 422 q 253 438 257 431 q 240 456 247 447 q 226 467 233 464 q 178 463 207 475 q 119 433 150 450 l 107 428 q 71 413 89 419 q 35 407 53 407 q 11 411 21 407 q -22 456 -17 425 q -21 474 -25 465 q -8 485 -17 482 q 21 467 14 490 q 28 453 22 454 l 31 450 z "},"÷":{"ha":114,"x_min":11,"x_max":103,"o":"m 53 97 q 56 97 56 97 q 60 96 57 96 q 64 93 61 96 q 65 81 65 90 q 67 86 65 83 q 77 92 65 93 q 96 76 89 90 q 101 46 103 61 q 98 36 100 42 q 92 25 96 31 q 61 14 81 11 q 45 17 53 15 q 28 25 38 18 q 14 44 19 29 q 12 56 11 50 q 14 67 13 61 q 23 83 17 78 q 36 93 29 89 l 53 97 m 56 60 l 56 61 q 53 60 53 61 l 56 60 m 53 253 q 56 252 56 253 q 60 251 57 251 q 64 249 61 251 q 65 236 65 246 q 67 242 65 239 q 77 247 65 249 q 96 232 89 246 q 101 201 103 217 q 98 192 100 197 q 92 181 96 186 q 61 169 81 167 q 45 172 53 171 q 28 181 38 174 q 14 200 19 185 q 12 211 11 206 q 14 222 13 217 q 23 239 17 233 q 36 249 29 244 l 53 253 m 56 215 l 56 217 q 53 215 53 217 l 56 215 z "},"ø":{"ha":275,"x_min":0,"x_max":265,"o":"m 38 -71 q 25 -56 19 -71 l 61 33 q 35 56 46 42 q 10 122 11 86 q 18 237 0 186 q 64 315 36 288 q 86 328 79 328 q 104 320 101 329 q 101 303 107 311 q 94 296 94 299 q 90 290 93 293 l 90 292 q 70 260 85 288 q 50 186 56 232 q 51 139 49 164 q 65 92 53 114 q 76 76 68 85 q 122 192 96 126 q 169 311 149 257 q 154 322 160 319 q 144 324 149 324 q 132 324 138 325 q 120 323 126 322 q 108 326 114 324 q 96 339 103 329 q 101 347 94 342 q 122 360 107 353 q 163 361 138 367 q 174 357 168 360 q 186 351 179 354 l 208 411 q 232 431 214 428 q 244 414 249 431 q 233 385 242 407 q 213 331 225 363 q 242 286 231 311 q 260 233 253 261 q 262 169 265 203 q 244 101 258 136 q 226 69 238 86 q 194 42 214 53 q 184 36 189 39 q 172 31 179 33 q 156 25 167 28 q 134 22 144 22 q 113 19 124 21 q 101 20 106 19 q 90 22 96 21 q 72 -24 81 -4 q 61 -56 64 -44 q 38 -71 56 -71 m 193 279 l 106 64 q 113 63 108 64 q 122 65 117 63 q 129 66 125 65 q 135 65 133 67 l 150 71 q 157 73 156 72 q 161 75 158 74 q 165 78 163 76 q 171 82 168 79 q 179 90 175 85 q 188 99 183 94 q 199 122 194 110 q 207 149 204 135 q 213 199 214 175 q 206 244 213 224 l 193 279 z "},"ù":{"ha":300,"x_min":19,"x_max":292,"o":"m 58 363 q 67 333 67 361 q 67 260 68 304 q 65 213 65 238 q 68 161 65 188 q 71 135 69 149 q 76 111 72 122 q 94 76 81 86 q 142 69 118 65 q 186 89 167 74 q 219 117 206 103 q 242 146 233 132 q 244 209 243 176 q 246 270 244 242 q 248 318 247 299 q 249 343 249 338 q 251 358 249 353 q 276 363 254 364 q 288 343 285 363 q 292 294 292 324 q 290 226 292 264 q 285 153 288 189 q 278 87 282 118 q 274 38 275 56 q 272 29 274 32 q 257 25 267 24 q 243 31 247 26 q 240 39 240 33 q 240 85 238 47 l 224 68 q 211 58 218 63 q 197 47 204 53 q 181 38 189 43 q 163 31 172 33 q 74 36 121 18 l 72 38 q 36 86 43 60 q 25 136 29 113 q 20 184 21 161 q 21 226 19 207 q 24 295 22 267 q 28 332 26 324 q 33 356 29 347 q 58 363 36 365 m 229 439 q 219 417 222 418 q 210 417 215 415 q 199 420 207 418 q 181 425 192 422 q 156 435 169 429 q 132 446 143 440 q 85 472 104 458 q 63 488 65 485 q 63 493 63 488 q 69 507 63 499 q 81 518 76 515 l 86 518 q 103 510 93 515 q 125 501 113 506 q 149 491 136 496 q 174 479 161 486 q 217 460 199 469 q 229 439 235 451 z "},"ú":{"ha":300,"x_min":19,"x_max":292,"o":"m 58 363 q 67 333 67 361 q 67 260 68 304 q 65 213 65 238 q 68 161 65 188 q 71 135 69 149 q 76 111 72 122 q 94 76 81 86 q 142 69 118 65 q 186 89 167 74 q 219 117 206 103 q 242 146 233 132 q 244 209 243 176 q 246 270 244 242 q 248 318 247 299 q 249 343 249 338 q 251 358 249 353 q 276 363 254 364 q 288 343 285 363 q 292 294 292 324 q 290 226 292 264 q 285 153 288 189 q 278 87 282 118 q 274 38 275 56 q 272 29 274 32 q 257 25 267 24 q 243 31 247 26 q 240 39 240 33 q 240 85 238 47 l 224 68 q 211 58 218 63 q 197 47 204 53 q 181 38 189 43 q 163 31 172 33 q 74 36 121 18 l 72 38 q 36 86 43 60 q 25 136 29 113 q 20 184 21 161 q 21 226 19 207 q 24 295 22 267 q 28 332 26 324 q 33 356 29 347 q 58 363 36 365 m 69 439 q 82 460 64 451 q 125 479 100 469 q 150 491 138 486 q 174 501 163 496 q 196 510 186 506 q 213 518 206 515 l 218 518 q 229 507 222 515 q 236 493 236 499 q 236 488 236 488 q 214 472 233 485 q 167 446 194 458 q 142 435 156 440 q 118 425 129 429 q 99 420 107 422 q 89 417 92 418 q 80 417 83 415 q 69 439 76 418 z "},"û":{"ha":300,"x_min":0,"x_max":301,"o":"m 58 363 q 67 333 67 361 q 67 260 68 304 q 65 213 65 238 q 68 161 65 188 q 71 135 69 149 q 76 111 72 122 q 94 76 81 86 q 142 69 118 65 q 186 89 167 74 q 219 117 206 103 q 242 146 233 132 q 244 209 243 176 q 246 270 244 242 q 248 318 247 299 q 249 343 249 338 q 251 358 249 353 q 276 363 254 364 q 288 343 285 363 q 292 294 292 324 q 290 226 292 264 q 285 153 288 189 q 278 87 282 118 q 274 38 275 56 q 272 29 274 32 q 257 25 267 24 q 243 31 247 26 q 240 39 240 33 q 240 85 238 47 l 224 68 q 211 58 218 63 q 197 47 204 53 q 181 38 189 43 q 163 31 172 33 q 74 36 121 18 l 72 38 q 36 86 43 60 q 25 136 29 113 q 20 184 21 161 q 21 226 19 207 q 24 295 22 267 q 28 332 26 324 q 33 356 29 347 q 58 363 36 365 m 296 439 q 285 417 289 418 q 276 417 282 415 l 247 425 q 223 435 236 429 q 199 446 210 440 q 172 459 183 453 q 150 472 160 465 q 128 459 140 465 q 103 446 117 453 q 78 435 92 440 q 54 425 65 429 l 25 417 q 16 417 19 415 q 6 439 13 418 q 18 460 0 451 q 61 479 36 469 l 110 501 q 128 508 121 504 q 143 515 136 513 l 147 518 l 154 518 q 157 517 154 517 q 172 509 164 514 q 192 501 181 504 l 240 479 q 283 460 265 469 q 296 439 301 451 z "},"ý":{"ha":283,"x_min":3,"x_max":279,"o":"m 32 -171 q 16 -172 24 -178 q 6 -160 8 -167 q 10 -143 6 -151 q 19 -118 11 -137 q 40 -72 28 -99 q 69 -10 53 -44 q 101 61 85 24 q 75 118 89 79 q 47 201 61 157 q 22 285 33 244 q 4 346 10 325 q 3 350 4 349 q 4 354 3 351 q 16 364 7 361 q 31 364 25 367 q 36 357 36 363 q 50 322 39 350 q 74 256 61 293 q 101 179 88 218 q 125 113 115 140 q 161 190 143 151 q 194 259 179 228 q 219 312 208 290 q 232 340 229 333 q 246 363 239 356 q 272 361 253 371 q 269 325 279 357 q 238 245 258 293 q 188 138 217 197 q 132 23 160 79 q 79 -82 104 -33 q 40 -158 54 -131 l 32 -171 l 32 -171 m 61 439 q 74 460 56 451 q 117 479 92 469 q 142 491 129 486 q 165 501 154 496 q 188 510 178 506 q 204 518 197 515 l 210 518 q 221 507 214 515 q 228 493 228 499 q 228 488 228 488 q 206 472 225 485 q 158 446 186 458 q 134 435 147 440 q 110 425 121 429 q 91 420 99 422 q 81 417 83 418 q 72 417 75 415 q 61 439 68 418 z "},"ÿ":{"ha":283,"x_min":3,"x_max":279,"o":"m 32 -171 q 16 -172 24 -178 q 6 -160 8 -167 q 10 -143 6 -151 q 19 -118 11 -137 q 40 -72 28 -99 q 69 -10 53 -44 q 101 61 85 24 q 75 118 89 79 q 47 201 61 157 q 22 285 33 244 q 4 346 10 325 q 3 350 4 349 q 4 354 3 351 q 16 364 7 361 q 31 364 25 367 q 36 357 36 363 q 50 322 39 350 q 74 256 61 293 q 101 179 88 218 q 125 113 115 140 q 161 190 143 151 q 194 259 179 228 q 219 312 208 290 q 232 340 229 333 q 246 363 239 356 q 272 361 253 371 q 269 325 279 357 q 238 245 258 293 q 188 138 217 197 q 132 23 160 79 q 79 -82 104 -33 q 40 -158 54 -131 l 32 -171 l 32 -171 z "},"=":{"ha":382,"x_min":11,"x_max":369,"o":"m 26 217 q 17 219 22 217 q 12 233 11 224 q 17 247 13 243 q 26 251 21 251 l 25 251 q 83 253 35 253 q 186 256 131 254 q 288 263 242 260 q 344 268 335 267 q 360 266 354 268 q 369 242 367 264 q 358 231 369 236 q 328 223 347 226 q 282 217 308 219 q 226 213 256 214 q 168 212 197 211 q 112 213 139 213 q 63 215 85 214 q 26 217 40 217 m 26 101 q 17 104 22 101 q 12 118 11 108 q 17 132 13 128 q 26 136 21 136 l 25 136 q 83 138 35 138 q 186 140 131 139 q 288 148 242 144 q 344 153 335 151 q 360 151 354 153 q 369 126 367 149 q 358 116 369 121 q 328 108 347 111 q 282 101 308 104 q 226 97 256 99 q 168 97 197 96 q 112 98 139 97 q 63 100 85 99 q 26 101 40 101 z "},"¨":{"ha":263,"x_min":10,"x_max":251,"o":"m 96 457 q 95 453 96 454 q 94 450 94 453 q 92 446 94 449 q 79 444 89 444 q 85 443 82 444 q 90 433 92 444 q 75 414 89 421 q 44 408 60 407 q 35 412 40 410 q 24 418 29 414 q 13 449 10 429 q 15 465 14 457 q 24 482 17 472 q 43 496 28 490 q 54 498 49 499 q 65 496 60 497 q 82 487 76 493 q 92 474 88 481 l 96 457 m 58 454 l 60 454 q 58 457 60 457 l 58 454 m 251 457 q 251 453 251 454 q 250 450 250 453 q 247 446 250 449 q 235 444 244 444 q 240 443 238 444 q 246 433 247 444 q 231 414 244 421 q 200 408 215 407 q 190 412 196 410 q 179 418 185 414 q 168 449 165 429 q 171 465 169 457 q 179 482 172 472 q 199 496 183 490 q 210 498 204 499 q 221 496 215 497 q 238 487 232 493 q 247 474 243 481 l 251 457 m 214 454 l 215 454 q 214 457 215 457 l 214 454 z "},"Ÿ":{"ha":489,"x_min":31,"x_max":475,"o":"m 243 101 q 74 161 125 101 q 41 224 50 189 q 31 299 32 260 q 36 382 31 339 q 49 468 42 425 q 56 511 53 490 q 61 551 58 532 q 85 571 64 574 q 103 546 107 565 q 98 505 101 525 q 92 463 94 485 q 80 383 85 422 q 75 308 75 344 q 82 242 75 272 q 107 190 89 211 q 243 144 146 144 q 382 196 336 144 q 432 357 428 247 l 432 358 l 432 550 q 438 566 432 560 q 453 572 444 572 q 475 550 475 572 l 475 21 q 469 6 475 13 q 453 0 463 0 q 438 6 444 0 q 432 21 432 13 l 432 192 q 243 101 374 101 m 208 668 q 208 665 208 665 q 207 661 207 664 q 204 657 207 660 q 192 656 201 656 q 197 654 194 656 q 203 644 204 656 q 188 625 201 632 q 157 619 172 618 q 147 623 153 621 q 136 629 142 625 q 125 660 122 640 q 128 676 126 668 q 136 693 129 683 q 156 707 140 701 q 167 709 161 710 q 178 707 172 708 q 194 698 189 704 q 204 685 200 692 l 208 668 m 171 665 l 172 665 q 171 668 172 668 l 171 665 m 364 668 q 363 665 364 665 q 363 661 363 664 q 360 657 363 660 q 347 656 357 656 q 353 654 350 656 q 358 644 360 656 q 343 625 357 632 q 313 619 328 618 q 303 623 308 621 q 292 629 297 625 q 281 660 278 640 q 283 676 282 668 q 292 693 285 683 q 311 707 296 701 q 322 709 317 710 q 333 707 328 708 q 350 698 344 704 q 360 685 356 692 l 364 668 m 326 665 l 328 665 q 326 668 328 668 l 326 665 z "},"Ä":{"ha":507,"x_min":11,"x_max":517,"o":"m 25 -6 q 14 8 17 -1 q 15 24 11 17 q 36 72 18 29 q 80 173 54 114 q 135 299 106 232 q 188 424 164 367 q 229 520 213 482 q 247 560 246 558 q 256 570 250 567 q 267 574 261 574 q 279 570 274 574 q 288 560 285 567 l 514 26 q 513 10 517 18 q 503 -1 510 1 q 485 -2 493 -6 q 474 10 476 1 l 396 192 l 136 192 q 81 65 104 118 q 54 6 57 13 q 35 -7 47 -7 q 25 -6 29 -7 m 267 496 q 244 444 257 474 q 217 380 232 414 q 185 309 201 346 q 154 236 169 272 l 378 236 l 267 496 m 218 668 q 217 665 218 665 q 217 661 217 664 q 214 657 217 660 q 201 656 211 656 q 207 654 204 656 q 213 644 214 656 q 197 625 211 632 q 167 619 182 618 q 157 623 163 621 q 146 629 151 625 q 135 660 132 640 q 138 676 136 668 q 146 693 139 683 q 165 707 150 701 q 176 709 171 710 q 188 707 182 708 q 204 698 199 704 q 214 685 210 692 l 218 668 m 181 665 l 182 665 q 181 668 182 668 l 181 665 m 374 668 q 373 665 374 665 q 372 661 372 664 q 369 657 372 660 q 357 656 367 656 q 363 654 360 656 q 368 644 369 656 q 353 625 367 632 q 322 619 338 618 q 313 623 318 621 q 301 629 307 625 q 290 660 288 640 q 293 676 292 668 q 301 693 294 683 q 321 707 306 701 q 332 709 326 710 q 343 707 338 708 q 360 698 354 704 q 369 685 365 692 l 374 668 m 336 665 l 338 665 q 336 668 338 668 l 336 665 z "},"˚":{"ha":113,"x_min":11,"x_max":103,"o":"m 53 499 q 56 498 56 499 q 60 497 57 497 q 64 494 61 497 q 65 482 65 492 q 67 488 65 485 q 77 493 65 494 q 96 478 89 492 q 101 447 103 463 q 98 438 100 443 q 92 426 96 432 q 61 415 81 413 q 45 418 53 417 q 28 426 38 419 q 14 446 19 431 q 12 457 11 451 q 14 468 13 463 q 23 485 17 479 q 36 494 29 490 l 53 499 m 53 461 q 56 463 53 463 l 56 461 l 53 461 m 53 499 q 56 498 56 499 q 60 497 57 497 q 64 494 61 497 q 65 482 65 492 q 67 488 65 485 q 77 493 65 494 q 96 478 89 492 q 101 447 103 463 q 98 438 100 443 q 92 426 96 432 q 61 415 81 413 q 45 418 53 417 q 28 426 38 419 q 14 446 19 431 q 12 457 11 451 q 14 468 13 463 q 23 485 17 479 q 36 494 29 490 l 53 499 m 53 461 q 56 463 53 463 l 56 461 l 53 461 m 56 475 l 58 475 l 60 474 q 61 468 61 472 l 61 469 q 67 472 61 472 q 75 465 72 472 q 78 451 78 460 q 72 442 75 446 q 58 438 67 436 q 52 438 56 438 q 43 442 49 439 q 38 451 39 444 q 38 461 35 456 q 47 474 39 468 q 51 474 50 474 q 56 475 53 475 m 57 458 l 56 458 l 57 458 m 56 475 l 58 475 l 60 474 q 61 468 61 472 l 61 469 q 67 472 61 472 q 75 465 72 472 q 78 451 78 460 q 72 442 75 446 q 58 438 67 436 q 52 438 56 438 q 43 442 49 439 q 38 451 39 444 q 38 461 35 456 q 47 474 39 468 q 51 474 50 474 q 56 475 53 475 m 57 458 l 56 458 l 57 458 z "},"Å":{"ha":507,"x_min":11,"x_max":517,"o":"m 25 -6 q 14 8 17 -1 q 15 24 11 17 q 36 72 18 29 q 80 173 54 114 q 135 299 106 232 q 188 424 164 367 q 229 520 213 482 q 247 560 246 558 q 256 570 250 567 q 267 574 261 574 q 279 570 274 574 q 288 560 285 567 l 514 26 q 513 10 517 18 q 503 -1 510 1 q 485 -2 493 -6 q 474 10 476 1 l 396 192 l 136 192 q 81 65 104 118 q 54 6 57 13 q 35 -7 47 -7 q 25 -6 29 -7 m 267 496 q 244 444 257 474 q 217 380 232 414 q 185 309 201 346 q 154 236 169 272 l 378 236 l 267 496 m 249 710 q 252 709 251 710 q 256 708 253 708 q 260 706 257 708 q 261 693 261 703 q 263 699 261 696 q 273 704 261 706 q 292 689 285 703 q 297 658 299 674 q 294 649 296 654 q 288 638 292 643 q 257 626 276 624 q 241 629 249 628 q 224 638 233 631 q 210 657 215 642 q 208 668 207 663 q 210 679 208 674 q 219 696 213 690 q 232 706 225 701 l 249 710 m 249 672 q 251 674 249 674 l 251 672 l 249 672 m 249 710 q 252 709 251 710 q 256 708 253 708 q 260 706 257 708 q 261 693 261 703 q 263 699 261 696 q 273 704 261 706 q 292 689 285 703 q 297 658 299 674 q 294 649 296 654 q 288 638 292 643 q 257 626 276 624 q 241 629 249 628 q 224 638 233 631 q 210 657 215 642 q 208 668 207 663 q 210 679 208 674 q 219 696 213 690 q 232 706 225 701 l 249 710 m 249 672 q 251 674 249 674 l 251 672 l 249 672 m 251 686 l 254 686 l 256 685 q 257 679 257 683 l 257 681 q 263 683 257 683 q 271 676 268 683 q 274 663 274 671 q 268 653 271 657 q 254 649 263 647 q 248 649 251 649 q 239 653 244 650 q 233 663 235 656 q 233 672 231 667 q 243 685 235 679 q 247 685 246 685 q 251 686 249 686 m 253 669 l 251 669 l 253 669 m 251 686 l 254 686 l 256 685 q 257 679 257 683 l 257 681 q 263 683 257 683 q 271 676 268 683 q 274 663 274 671 q 268 653 271 657 q 254 649 263 647 q 248 649 251 649 q 239 653 244 650 q 233 663 235 656 q 233 672 231 667 q 243 685 235 679 q 247 685 246 685 q 251 686 249 686 m 253 669 l 251 669 l 253 669 z "},"Ë":{"ha":390,"x_min":26,"x_max":407,"o":"m 47 0 q 33 6 39 0 q 26 21 26 11 q 26 81 26 40 q 28 175 26 122 q 28 292 28 231 q 30 407 29 353 q 31 501 31 461 q 29 551 31 540 l 29 553 q 30 554 29 554 q 31 556 31 554 q 32 560 31 558 q 33 563 32 563 q 33 564 33 563 q 35 568 33 567 q 39 569 38 568 q 42 572 42 572 q 45 573 44 572 q 47 574 46 574 q 50 575 47 574 l 51 575 l 386 575 q 407 553 407 575 q 386 531 407 531 l 74 531 l 74 279 l 229 279 q 244 272 238 279 q 251 256 251 265 q 244 241 251 247 q 229 235 238 235 l 72 235 l 72 175 q 71 101 71 135 q 71 44 71 67 l 386 44 q 407 21 407 44 q 386 0 407 0 l 47 0 l 47 0 m 160 668 q 159 665 160 665 q 158 661 158 664 q 156 657 158 660 q 143 656 153 656 q 149 654 146 656 q 154 644 156 656 q 139 625 153 632 q 108 619 124 618 q 99 623 104 621 q 88 629 93 625 q 76 660 74 640 q 79 676 78 668 q 88 693 81 683 q 107 707 92 701 q 118 709 113 710 q 129 707 124 708 q 146 698 140 704 q 156 685 151 692 l 160 668 m 122 665 l 124 665 q 122 668 124 668 l 122 665 m 315 668 q 315 665 315 665 q 314 661 314 664 q 311 657 314 660 q 299 656 308 656 q 304 654 301 656 q 310 644 311 656 q 294 625 308 632 q 264 619 279 618 q 254 623 260 621 q 243 629 249 625 q 232 660 229 640 q 235 676 233 668 q 243 693 236 683 q 263 707 247 701 q 274 709 268 710 q 285 707 279 708 q 301 698 296 704 q 311 685 307 692 l 315 668 m 278 665 l 279 665 q 278 668 279 668 l 278 665 z "},"Ï":{"ha":86,"x_min":-78,"x_max":164,"o":"m 46 1 q 30 8 36 1 q 24 22 24 14 q 24 82 24 40 q 25 176 25 124 q 27 292 26 231 q 28 408 28 354 q 28 502 28 463 q 28 553 28 542 q 47 576 25 574 q 71 556 68 576 q 71 504 71 543 q 71 412 71 465 q 70 297 71 358 q 68 176 69 235 q 67 82 68 124 q 67 22 67 40 q 61 8 67 14 q 46 1 56 1 m 8 668 q 8 665 8 665 q 7 661 7 664 q 4 657 7 660 q -8 656 1 656 q -3 654 -6 656 q 3 644 4 656 q -12 625 1 632 q -43 619 -28 618 q -53 623 -47 621 q -64 629 -58 625 q -75 660 -78 640 q -72 676 -74 668 q -64 693 -71 683 q -44 707 -60 701 q -33 709 -39 710 q -22 707 -28 708 q -6 698 -11 704 q 4 685 0 692 l 8 668 m -29 665 l -28 665 q -29 668 -28 668 l -29 665 m 164 668 q 163 665 164 665 q 163 661 163 664 q 160 657 163 660 q 147 656 157 656 q 153 654 150 656 q 158 644 160 656 q 143 625 157 632 q 113 619 128 618 q 103 623 108 621 q 92 629 97 625 q 81 660 78 640 q 83 676 82 668 q 92 693 85 683 q 111 707 96 701 q 122 709 117 710 q 133 707 128 708 q 150 698 144 704 q 160 685 156 692 l 164 668 m 126 665 l 128 665 q 126 668 128 668 l 126 665 z "},"Ö":{"ha":526,"x_min":19,"x_max":518,"o":"m 276 479 q 372 461 326 479 q 451 407 417 443 q 501 328 485 372 q 517 236 518 285 q 493 142 514 186 q 438 66 472 99 q 358 15 403 33 q 261 -4 313 -4 q 166 14 211 -4 q 88 68 121 32 q 37 147 54 103 q 22 239 19 190 q 44 333 24 289 q 100 409 65 376 q 180 460 135 442 q 276 479 225 479 m 261 44 q 340 60 303 44 q 404 101 376 75 q 449 163 432 128 q 468 239 467 199 q 456 311 469 276 q 417 374 443 346 q 353 416 389 401 q 276 431 317 431 q 198 415 235 431 q 133 374 161 400 q 89 312 106 347 q 71 236 72 276 q 83 164 69 199 q 122 101 96 129 q 185 59 150 74 q 261 44 221 44 m 265 299 q 308 281 290 299 q 322 244 322 267 q 304 208 321 222 q 263 193 288 193 q 219 210 236 193 q 206 246 203 226 q 223 283 206 268 q 265 299 240 299 m 263 242 q 274 246 274 242 q 265 250 274 250 q 254 244 254 250 q 256 243 254 243 q 263 242 257 242 m 228 668 q 227 665 228 665 q 226 661 226 664 q 224 657 226 660 q 211 656 221 656 q 217 654 214 656 q 222 644 224 656 q 207 625 221 632 q 176 619 192 618 q 167 623 172 621 q 156 629 161 625 q 144 660 142 640 q 147 676 146 668 q 156 693 149 683 q 175 707 160 701 q 186 709 181 710 q 197 707 192 708 q 214 698 208 704 q 224 685 219 692 l 228 668 m 190 665 l 192 665 q 190 668 192 668 l 190 665 m 383 668 q 383 665 383 665 q 382 661 382 664 q 379 657 382 660 q 367 656 376 656 q 372 654 369 656 q 378 644 379 656 q 363 625 376 632 q 332 619 347 618 q 322 623 328 621 q 311 629 317 625 q 300 660 297 640 q 303 676 301 668 q 311 693 304 683 q 331 707 315 701 q 342 709 336 710 q 353 707 347 708 q 369 698 364 704 q 379 685 375 692 l 383 668 m 346 665 l 347 665 q 346 668 347 668 l 346 665 z "},"Ç":{"ha":558,"x_min":25,"x_max":556,"o":"m 326 -1 q 280 2 307 -1 q 222 15 253 6 q 220 -16 210 -1 q 241 -44 231 -31 q 253 -72 251 -58 q 224 -99 254 -85 q 183 -104 203 -108 q 154 -94 164 -100 q 120 -65 132 -83 q 107 -32 108 -47 q 110 -25 104 -28 q 121 -21 115 -22 q 140 -32 135 -21 q 150 -58 140 -43 q 174 -79 160 -72 q 193 -83 179 -83 q 219 -72 219 -82 q 208 -48 218 -62 q 190 -15 199 -33 q 193 25 182 4 q 131 57 161 38 q 78 106 101 76 q 40 174 54 135 q 25 264 25 213 q 47 383 25 333 q 102 468 69 433 q 174 524 135 503 q 246 556 213 544 q 301 571 279 567 q 325 575 324 575 q 437 568 393 579 q 506 541 481 557 q 541 510 531 525 q 553 494 551 496 q 553 478 556 486 q 543 467 550 469 q 526 465 535 461 q 513 476 517 468 q 504 488 513 478 q 476 508 496 497 q 420 527 456 519 q 329 531 385 535 q 306 528 326 531 q 257 515 286 525 q 195 488 228 506 q 135 440 163 469 q 88 367 107 410 q 69 264 69 324 q 99 153 69 196 q 171 85 129 110 q 256 52 213 61 q 326 43 300 43 q 419 51 383 43 q 476 71 456 60 q 514 99 501 83 q 527 108 518 106 q 544 106 536 111 q 553 94 551 103 q 551 78 556 85 q 540 62 550 75 q 503 35 529 49 q 435 10 478 21 q 326 -1 393 -1 z "},"Ü":{"ha":494,"x_min":35,"x_max":485,"o":"m 97 444 q 85 340 90 392 q 80 241 79 288 q 90 155 81 194 q 122 89 99 115 q 249 43 164 43 l 250 43 q 375 93 331 43 q 422 188 408 131 q 438 307 436 244 q 435 432 440 369 q 424 544 429 494 l 424 549 q 443 574 421 571 q 458 569 451 575 q 467 554 465 564 l 468 550 q 479 431 474 497 q 481 297 485 364 q 462 169 478 231 q 408 65 446 107 q 250 0 351 0 l 249 0 q 90 60 142 0 q 51 135 63 92 q 37 231 39 179 q 41 338 35 282 q 54 451 47 394 q 60 503 57 478 q 67 554 64 528 q 74 569 68 563 q 90 574 81 575 q 104 565 99 572 q 108 550 110 558 q 103 499 107 525 q 97 444 100 472 m 211 668 q 210 665 211 665 q 210 661 210 664 q 207 657 210 660 q 194 656 204 656 q 200 654 197 656 q 206 644 207 656 q 190 625 204 632 q 160 619 175 618 q 150 623 156 621 q 139 629 144 625 q 128 660 125 640 q 131 676 129 668 q 139 693 132 683 q 158 707 143 701 q 169 709 164 710 q 181 707 175 708 q 197 698 192 704 q 207 685 203 692 l 211 668 m 174 665 l 175 665 q 174 668 175 668 l 174 665 m 367 668 q 366 665 367 665 q 365 661 365 664 q 363 657 365 660 q 350 656 360 656 q 356 654 353 656 q 361 644 363 656 q 346 625 360 632 q 315 619 331 618 q 306 623 311 621 q 294 629 300 625 q 283 660 281 640 q 286 676 285 668 q 294 693 288 683 q 314 707 299 701 q 325 709 319 710 q 336 707 331 708 q 353 698 347 704 q 363 685 358 692 l 367 668 m 329 665 l 331 665 q 329 668 331 668 l 329 665 z "},"ë":{"ha":267,"x_min":6,"x_max":283,"o":"m 11 101 q 8 121 8 110 q 6 142 7 132 q 56 289 6 219 l 61 297 l 64 299 l 65 301 l 69 304 q 82 318 74 310 q 99 331 90 325 q 115 342 107 336 q 152 360 132 353 q 196 364 172 367 q 219 357 206 364 q 224 355 222 356 q 232 351 226 354 q 239 346 235 349 q 258 299 261 324 q 249 259 257 275 q 231 228 242 243 q 210 206 222 217 q 186 189 197 196 q 165 175 175 181 q 144 165 154 169 q 111 151 125 156 q 90 146 97 147 q 47 142 65 140 q 48 135 47 139 q 49 129 49 132 q 51 115 49 122 q 57 99 54 107 q 92 65 65 74 q 144 61 119 57 q 190 74 171 64 q 222 96 210 85 q 229 103 226 100 q 236 110 232 107 q 255 115 247 121 q 261 97 263 108 q 256 83 260 90 q 246 71 251 76 q 229 56 242 65 q 197 39 217 47 q 151 24 178 29 q 89 25 124 18 q 55 39 72 29 q 26 67 38 49 l 24 72 q 21 76 24 71 l 21 78 l 18 86 l 11 101 m 68 225 q 59 201 63 213 q 53 176 56 189 q 85 185 65 179 q 129 206 106 192 q 171 233 153 218 q 190 251 179 239 l 196 258 l 197 260 l 199 263 l 206 275 q 213 297 213 288 q 210 310 213 307 q 163 314 192 324 q 108 280 133 303 q 68 225 83 257 m 128 457 q 127 453 128 454 q 126 450 126 453 q 124 446 126 449 q 111 444 121 444 q 117 443 114 444 q 122 433 124 444 q 107 414 121 421 q 76 408 92 407 q 67 412 72 410 q 56 418 61 414 q 44 449 42 429 q 47 465 46 457 q 56 482 49 472 q 75 496 60 490 q 86 498 81 499 q 97 496 92 497 q 114 487 108 493 q 124 474 119 481 l 128 457 m 90 454 l 92 454 q 90 457 92 457 l 90 454 m 283 457 q 283 453 283 454 q 282 450 282 453 q 279 446 282 449 q 267 444 276 444 q 272 443 269 444 q 278 433 279 444 q 263 414 276 421 q 232 408 247 407 q 222 412 228 410 q 211 418 217 414 q 200 449 197 429 q 203 465 201 457 q 211 482 204 472 q 231 496 215 490 q 242 498 236 499 q 253 496 247 497 q 269 487 264 493 q 279 474 275 481 l 283 457 m 246 454 l 247 454 q 246 457 247 457 l 246 454 z "},"ï":{"ha":79,"x_min":-82,"x_max":160,"o":"m 21 39 q 19 67 19 44 q 19 122 19 90 q 18 190 18 154 q 18 258 18 226 q 18 313 18 290 q 18 343 18 336 q 21 357 18 351 q 46 363 24 363 q 58 344 54 363 q 64 295 63 325 q 65 228 65 265 q 62 156 64 192 q 58 89 60 119 q 56 40 57 58 q 54 31 56 33 q 39 26 49 25 q 25 31 29 28 q 21 40 21 35 l 21 39 m 36 435 q 39 436 36 436 l 39 435 l 36 435 m 4 457 q 3 453 4 454 q 3 450 3 453 q 0 446 3 449 q -12 444 -3 444 q -7 443 -10 444 q -1 433 0 444 q -17 414 -3 421 q -47 408 -32 407 q -57 412 -51 410 q -68 418 -62 414 q -79 449 -82 429 q -76 465 -78 457 q -68 482 -75 472 q -49 496 -64 490 q -37 498 -43 499 q -26 496 -32 497 q -10 487 -15 493 q 0 474 -4 481 l 4 457 m -33 454 l -32 454 q -33 457 -32 457 l -33 454 m 160 457 q 159 453 160 454 q 158 450 158 453 q 156 446 158 449 q 143 444 153 444 q 149 443 146 444 q 154 433 156 444 q 139 414 153 421 q 108 408 124 407 q 99 412 104 410 q 88 418 93 414 q 76 449 74 429 q 79 465 78 457 q 88 482 81 472 q 107 496 92 490 q 118 498 113 499 q 129 496 124 497 q 146 487 140 493 q 156 474 151 481 l 160 457 m 122 454 l 124 454 q 122 457 124 457 l 122 454 z "},"ö":{"ha":275,"x_min":0,"x_max":265,"o":"m 86 328 q 104 320 101 329 q 101 303 107 311 q 94 296 94 299 q 90 290 93 293 l 90 292 q 70 260 85 288 q 50 186 56 232 q 51 139 49 164 q 65 92 53 114 q 80 74 71 81 q 97 65 89 68 q 110 64 104 65 q 122 65 115 63 q 129 66 125 65 q 135 65 133 67 l 150 71 q 157 73 156 72 q 161 75 158 74 q 165 78 163 76 q 171 82 168 79 q 179 90 175 85 q 188 99 183 94 q 199 122 194 110 q 207 149 204 135 q 213 199 214 175 q 206 244 213 224 q 191 283 200 267 q 172 310 182 300 q 155 322 161 319 q 144 324 149 324 q 132 324 138 325 q 120 323 126 322 q 108 326 114 324 q 96 339 103 329 q 101 347 94 342 q 122 360 107 353 q 163 361 138 367 q 187 352 174 358 q 208 336 200 346 q 240 290 228 317 q 260 233 253 264 q 262 169 265 203 q 244 101 258 136 q 226 69 238 86 q 194 42 214 53 q 184 36 189 39 q 172 31 179 33 q 156 25 167 28 q 134 22 144 22 q 113 19 124 21 q 70 30 90 21 q 35 56 50 39 q 10 122 11 86 q 18 237 0 186 q 64 315 36 288 q 86 328 79 328 m 101 457 q 101 453 101 454 q 100 450 100 453 q 97 446 100 449 q 85 444 94 444 q 90 443 88 444 q 96 433 97 444 q 81 414 94 421 q 50 408 65 407 q 40 412 46 410 q 29 418 35 414 q 18 449 15 429 q 21 465 19 457 q 29 482 22 472 q 49 496 33 490 q 60 498 54 499 q 71 496 65 497 q 88 487 82 493 q 97 474 93 481 l 101 457 m 64 454 l 65 454 q 64 457 65 457 l 64 454 m 257 457 q 256 453 257 454 q 256 450 256 453 q 253 446 256 449 q 240 444 250 444 q 246 443 243 444 q 251 433 253 444 q 236 414 250 421 q 206 408 221 407 q 196 412 201 410 q 185 418 190 414 q 174 449 171 429 q 176 465 175 457 q 185 482 178 472 q 204 496 189 490 q 215 498 210 499 q 226 496 221 497 q 243 487 238 493 q 253 474 249 481 l 257 457 m 219 454 l 221 454 q 219 457 221 457 l 219 454 z "},"ü":{"ha":300,"x_min":19,"x_max":292,"o":"m 58 363 q 67 333 67 361 q 67 260 68 304 q 65 213 65 238 q 68 161 65 188 q 71 135 69 149 q 76 111 72 122 q 94 76 81 86 q 142 69 118 65 q 186 89 167 74 q 219 117 206 103 q 242 146 233 132 q 244 209 243 176 q 246 270 244 242 q 248 318 247 299 q 249 343 249 338 q 251 358 249 353 q 276 363 254 364 q 288 343 285 363 q 292 294 292 324 q 290 226 292 264 q 285 153 288 189 q 278 87 282 118 q 274 38 275 56 q 272 29 274 32 q 257 25 267 24 q 243 31 247 26 q 240 39 240 33 q 240 85 238 47 l 224 68 q 211 58 218 63 q 197 47 204 53 q 181 38 189 43 q 163 31 172 33 q 74 36 121 18 l 72 38 q 36 86 43 60 q 25 136 29 113 q 20 184 21 161 q 21 226 19 207 q 24 295 22 267 q 28 332 26 324 q 33 356 29 347 q 58 363 36 365 m 114 457 q 113 453 114 454 q 113 450 113 453 q 110 446 113 449 q 97 444 107 444 q 103 443 100 444 q 108 433 110 444 q 93 414 107 421 q 63 408 78 407 q 53 412 58 410 q 42 418 47 414 q 31 449 28 429 q 33 465 32 457 q 42 482 35 472 q 61 496 46 490 q 72 498 67 499 q 83 496 78 497 q 100 487 94 493 q 110 474 106 481 l 114 457 m 76 454 l 78 454 q 76 457 78 457 l 76 454 m 269 457 q 269 453 269 454 q 268 450 268 453 q 265 446 268 449 q 253 444 263 444 q 258 443 256 444 q 264 433 265 444 q 249 414 263 421 q 218 408 233 407 q 208 412 214 410 q 197 418 203 414 q 186 449 183 429 q 189 465 188 457 q 197 482 190 472 q 217 496 201 490 q 228 498 222 499 q 239 496 233 497 q 256 487 250 493 q 265 474 261 481 l 269 457 m 232 454 l 233 454 q 232 457 233 457 l 232 454 z "}}}
